<svg width="200" height="200" viewBox="0 0 200 200" fill="none" xmlns="http://www.w3.org/2000/svg">
  <g clip-path="url(#clip0_4_1583)">
    <rect width="200" height="200" rx="100" fill="url(#paint0_linear_4_1583)"/>
    <path d="M78.6664 125.856V126.143C78.5873 132.222 73.4762 136.793 63.3331 139.856C75.5551 148.745 87.7778 155.856 99.9998 155.856C112.222 155.856 124.444 148.745 136.666 139.856C126.592 136.789 121.481 132.212 121.333 126.123C121.333 125.037 121.341 123.496 121.348 120.602C121.348 120.142 121.35 119.672 121.352 119.19C122.08 119.293 122.018 119.227 121.352 119.042C121.372 111.429 121.404 101.193 121.45 90.7894C131.004 78.4047 127.494 63.8854 124.5 64.2474C120.83 64.6947 89.0284 34.516 82.9284 32.9687C76.8284 31.4214 61.3331 36.4167 58.6664 50.3334C55.9998 64.25 54.8851 99.3287 64.9998 113.333C67.878 117.319 72.4113 118.878 78.5998 118.01C78.6084 120.923 78.6258 122.557 78.6664 125.856Z" fill="url(#paint1_linear_4_1583)"/>
    <path d="M78.6665 118C93.3332 116.333 102.667 110 102.667 110C102.667 110 92.5732 123.411 78.6665 126V118Z" fill="#FFBE94"/>
    <path d="M126.333 91C130.927 79.9534 149.333 57.4554 133.467 43.4554C128.133 17.4554 98.6665 20.3334 78.9998 26.3334C65.7818 30.366 55.7998 38.3334 53.6665 32.3334C40.3332 43.4554 47.0105 54.3334 55.7998 57.4554C63.7772 60.2887 77.2665 63.122 100.204 60.4554C104.301 59.9787 103.443 72.5274 105.633 73.884C108.917 75.9194 111.467 63.122 120.472 66.9647C129.477 70.8074 124.133 88.6247 114.467 88.6247C111.133 88.6247 109.467 97.7894 118.467 102.123C125 105.333 123.349 98.178 126.333 91Z" fill="url(#paint2_linear_4_1583)"/>
    <path d="M170 160.205C176.347 173.11 180 202.872 180 202.872H20C20 202.872 23.6547 173.107 30 160.205C36.3453 147.304 73.4 135.338 73.4 135.338C80.542 150 119.739 150 126.581 135.333C126.581 135.333 163.653 147.301 170 160.205Z" fill="url(#paint3_linear_4_1583)"/>
    <mask id="mask0_4_1583" style="mask-type:alpha" maskUnits="userSpaceOnUse" x="20" y="135" width="160" height="68">
      <path d="M170 160.205C176.347 173.11 180 202.872 180 202.872H20C20 202.872 23.6547 173.107 30 160.205C36.3453 147.304 73.4 135.338 73.4 135.338C80.542 150 119.739 150 126.581 135.333C126.581 135.333 163.653 147.301 170 160.205Z" fill="url(#paint4_linear_4_1583)"/>
    </mask>
    <g mask="url(#mask0_4_1583)">
      <path d="M13.3335 189.333V184H186.667V189.333H13.3335ZM13.3335 176V170.667H186.667V176H13.3335ZM13.3335 162.667V157.333H186.667V162.667H13.3335Z" fill="url(#paint5_linear_4_1583)"/>
    </g>
  </g>
  <defs>
    <linearGradient id="paint0_linear_4_1583" x1="100" y1="0" x2="100" y2="200" gradientUnits="userSpaceOnUse">
      <stop stop-color="#1D0024"/>
      <stop offset="1" stop-color="#100014"/>
    </linearGradient>
    <linearGradient id="paint1_linear_4_1583" x1="96.7475" y1="32.6981" x2="96.7475" y2="155.856" gradientUnits="userSpaceOnUse">
      <stop stop-color="#FFD4B3"/>
      <stop offset="1" stop-color="#FFDCC2"/>
    </linearGradient>
    <linearGradient id="paint2_linear_4_1583" x1="92.9601" y1="102.912" x2="92.9601" y2="22.2586" gradientUnits="userSpaceOnUse">
      <stop stop-color="#E6864E"/>
      <stop offset="1" stop-color="#E67240"/>
    </linearGradient>
    <linearGradient id="paint3_linear_4_1583" x1="100" y1="202.872" x2="100" y2="135.333" gradientUnits="userSpaceOnUse">
      <stop stop-color="#E6864E"/>
      <stop offset="1" stop-color="#E67240"/>
    </linearGradient>
    <linearGradient id="paint4_linear_4_1583" x1="100" y1="202.872" x2="100" y2="135.333" gradientUnits="userSpaceOnUse">
      <stop stop-color="#E6864E"/>
      <stop offset="1" stop-color="#E67240"/>
    </linearGradient>
    <linearGradient id="paint5_linear_4_1583" x1="100" y1="157.333" x2="100" y2="189.333" gradientUnits="userSpaceOnUse">
      <stop stop-color="#F7B186"/>
      <stop offset="1" stop-color="#FFC299"/>
    </linearGradient>
    <clipPath id="clip0_4_1583">
      <rect width="200" height="200" rx="100" fill="white"/>
    </clipPath>
  </defs>
</svg>
