<svg width="200" height="200" viewBox="0 0 200 200" fill="none" xmlns="http://www.w3.org/2000/svg">
  <path d="M41.545 41.2823C34.8534 48.224 29.6054 56.0719 25.8013 64.8261" stroke="#729E86" stroke-width="2"/>
  <path d="M25.8011 64.826C25.6177 65.3427 25.4261 65.6344 25.2261 65.701" stroke="#639884" stroke-width="2"/>
  <path d="M61.8699 26.3885C54.1866 30.3135 47.4116 35.2781 41.5449 41.2823" stroke="#72A189" stroke-width="2"/>
  <path d="M182.126 112.095C184.783 85.1886 177.183 59.8323 157.808 40.6198" stroke="#5C9B8A" stroke-width="2"/>
  <path d="M157.807 40.6198C149.032 32.0865 138.851 25.7865 127.264 21.7198" stroke="#6FA490" stroke-width="2"/>
  <path d="M127.264 21.7198C105.326 13.7573 82.4451 15.8136 61.8701 26.3886" stroke="#74A58D" stroke-width="2"/>
  <path d="M127.264 21.7198C125.993 22.749 124.643 23.0511 123.214 22.6261C123.03 22.5719 122.849 22.5782 122.67 22.6448L117.67 24.4948C117.453 24.574 117.345 24.7282 117.345 24.9573C117.345 26.1198 116.839 26.8573 115.826 27.1698C112.564 28.1823 109.539 30.0136 106.351 31.3323C105.714 31.5948 105.093 32.1636 104.489 33.0386C104.372 33.2052 104.412 33.3198 104.607 33.3823C105.424 33.6407 106.137 34.0844 106.745 34.7136C106.77 34.7427 106.782 34.7782 106.782 34.8198C106.778 34.874 106.77 34.9282 106.757 34.9823C106.724 35.0907 106.764 35.1448 106.876 35.1448C107.807 35.1448 108.214 36.6511 107.626 36.7886" stroke="#AACCA2" stroke-width="2"/>
  <path d="M107.626 36.7885L105.151 35.451" stroke="#6E705C" stroke-width="2"/>
  <path d="M105.151 35.4511C105.839 34.5886 103.933 34.1386 103.351 33.8948C99.3055 32.1948 94.8764 31.2886 90.0639 31.1761C75.7451 30.8448 60.7764 34.9323 50.5451 45.2323C50.3243 45.4573 50.0993 45.8115 49.8701 46.2948C49.3951 47.3011 48.2951 47.9636 47.8326 48.6698C45.1826 52.7198 43.4764 57.1469 42.7139 61.9511" stroke="#D3CD9B" stroke-width="2"/>
  <path d="M42.7138 61.9511C41.5513 62.0719 40.9304 61.6927 40.8513 60.8136C40.8417 60.7113 40.8076 60.6129 40.7521 60.527C40.6966 60.441 40.6213 60.3699 40.5325 60.3198C39.5992 59.7948 38.7763 59.9323 38.0638 60.7323C37.9263 60.8865 37.7596 60.999 37.5638 61.0698C37.2638 61.1761 29.2138 63.4448 29.1138 64.5511C29.1013 64.7344 29.0075 64.8532 28.8325 64.9073C28.3534 65.0615 27.8867 65.0052 27.4325 64.7386C27.2284 64.6219 27.0721 64.6677 26.9638 64.8761L26.7575 65.2511C26.5992 65.5511 26.4117 65.5698 26.195 65.3073L25.8013 64.8261" stroke="#A0C89C" stroke-width="2"/>
  <path d="M157.807 40.6198L157.482 41.3635C157.37 41.6344 157.459 41.7698 157.751 41.7698H158.039C158.072 41.7719 158.104 41.7852 158.129 41.8077C158.155 41.8302 158.171 41.8606 158.177 41.8938C158.183 41.927 158.177 41.9612 158.161 41.9909C158.145 42.0206 158.12 42.0439 158.089 42.0573C157.322 42.3406 156.791 42.2989 156.495 41.9323C156.357 41.7573 156.18 41.6406 155.964 41.5823C155.03 41.3281 154.205 40.8781 153.489 40.2323C153.33 40.0864 153.164 40.0781 152.989 40.2073C152.076 40.8823 151.91 41.7302 152.489 42.751C152.514 42.7969 152.509 42.8385 152.476 42.876C152.43 42.9219 152.393 42.9614 152.364 42.9948C152.36 43.0002 152.357 43.0068 152.357 43.0135C152.357 43.0203 152.36 43.0269 152.364 43.0323C153.093 44.0656 153.866 45.0594 154.682 46.0135C154.812 46.1635 154.828 46.326 154.732 46.501C154.628 46.6885 154.572 46.9031 154.564 47.1448" stroke="#92C39F" stroke-width="2"/>
  <path d="M154.564 47.1449C151.755 43.7574 148.335 41.2344 144.301 39.5761" stroke="#60695A" stroke-width="2"/>
  <path d="M144.301 39.5761C136.718 35.7469 129.193 35.8052 121.726 39.7511" stroke="#797865" stroke-width="2"/>
  <path d="M121.726 39.7511C119.172 41.3261 117.024 43.2261 115.283 45.4511C115.129 45.6511 114.993 45.6386 114.876 45.4136C113.068 41.9595 110.651 39.0845 107.626 36.7886" stroke="#6A6F5F" stroke-width="2"/>
  <path d="M105.151 35.451L101.188 33.9572" stroke="#937058" stroke-width="2"/>
  <path d="M101.189 33.9573C83.67 28.8635 60.045 35.6573 48.7388 50.126" stroke="#A2795E" stroke-width="2"/>
  <path d="M48.7387 50.126C45.8304 54.2427 43.9637 58.8177 43.1387 63.851" stroke="#9B755B" stroke-width="2"/>
  <path d="M43.1388 63.851C42.2722 64.3802 42.1305 63.7468 42.7138 61.951" stroke="#C4C898" stroke-width="2"/>
  <path d="M101.188 33.9572C100.201 35.1072 102.663 35.3885 103.382 35.776" stroke="#3D1C1F" stroke-width="2"/>
  <path d="M103.382 35.7761C103.261 36.0386 103.284 36.3365 103.451 36.6698C103.493 36.7527 103.507 36.847 103.491 36.9392C103.475 37.0313 103.43 37.1164 103.363 37.1823C102.867 37.674 102.278 37.8469 101.595 37.7011C101.432 37.6677 101.282 37.6969 101.145 37.7886C100.353 38.3052 99.4716 38.5844 98.5008 38.6261C98.3761 38.6319 98.2569 38.6778 98.161 38.7567C98.0652 38.8357 97.998 38.9434 97.9696 39.0636L97.807 39.7386C97.783 39.8384 97.7304 39.929 97.656 39.999C97.5815 40.069 97.4885 40.1153 97.3883 40.1323C88.1508 41.6156 79.3758 44.4698 71.0633 48.6948C68.8821 49.8011 66.6633 51.4823 64.4258 52.8386C64.3613 52.8799 64.2847 52.8982 64.2085 52.8902C64.1322 52.8822 64.061 52.8486 64.0065 52.7948C63.9519 52.741 63.9173 52.6702 63.9083 52.5941C63.8993 52.518 63.9165 52.4411 63.957 52.3761L64.9258 50.6948C64.9594 50.6408 64.9733 50.5768 64.9649 50.5137C64.9566 50.4506 64.9267 50.3923 64.8803 50.3488C64.8338 50.3053 64.7737 50.2793 64.7102 50.2751C64.6467 50.271 64.5838 50.289 64.5321 50.3261C61.2883 52.5386 59.5133 54.6948 57.7633 58.1511C57.0258 59.6011 55.9258 60.7531 54.4633 61.6073C54.4226 61.6314 54.3772 61.6464 54.3301 61.6515C54.283 61.6566 54.2352 61.6516 54.1899 61.6369C54.1445 61.6221 54.1026 61.598 54.0668 61.566C54.031 61.534 54.0021 61.4948 53.9821 61.4511L52.982 59.1823C52.8987 58.9865 52.905 58.7948 53.0008 58.6073C54.7841 55.2281 57.1716 52.3573 60.1633 49.9948C60.2469 49.9287 60.3041 49.8347 60.3247 49.7294C60.3453 49.6241 60.328 49.5144 60.2758 49.4198C60.1508 49.199 59.9612 49.1823 59.707 49.3698C55.132 52.7823 51.9612 57.2156 50.1946 62.6698C50.1362 62.8531 50.0175 62.9865 49.8383 63.0698L47.4196 64.1448C47.2987 64.1977 47.1625 64.2025 47.0391 64.1583C46.9157 64.114 46.8147 64.0242 46.7571 63.9073C46.3404 63.0656 45.68 62.5219 44.7758 62.2761C44.53 62.2094 44.4341 62.0511 44.4883 61.8011C45.2675 58.1886 46.657 54.8386 48.657 51.7511C48.8945 51.3886 48.9216 50.8469 48.7383 50.1261" stroke="#452122" stroke-width="2"/>
  <path d="M91.6512 35.0511C91.7416 34.9792 91.8071 34.881 91.8386 34.7701C91.87 34.6591 91.8659 34.5409 91.8268 34.4318C91.7876 34.3227 91.7154 34.2281 91.6202 34.161C91.5249 34.0939 91.4112 34.0577 91.2949 34.0573C83.3137 34.0948 74.4449 35.6761 68.9824 41.7136C68.9663 41.7338 68.9568 41.7585 68.9553 41.7844C68.9538 41.8102 68.9603 41.8359 68.9741 41.8578C68.9878 41.8798 69.008 41.8969 69.0318 41.9069C69.0557 41.9169 69.0822 41.9192 69.1074 41.9136C75.9491 40.0344 82.7636 38.0906 89.5511 36.0823C90.4178 35.8281 91.1178 35.4844 91.6512 35.0511Z" stroke="#A2795E" stroke-width="2"/>
  <path d="M121.726 39.751C121.922 41.4551 121.091 42.9239 119.233 44.1572C119.047 44.2825 118.912 44.4685 118.851 44.6822C118.643 45.4572 118.833 45.9718 119.42 46.226C119.503 46.2612 119.577 46.3139 119.638 46.3807C119.7 46.4474 119.747 46.5267 119.776 46.6135L120.27 48.0822C120.299 48.1692 120.36 48.2421 120.441 48.2861C120.522 48.3302 120.617 48.3422 120.708 48.3197C124.076 47.5447 127.314 47.526 130.845 47.2447C134.083 46.9947 137.526 48.5947 140.551 50.2322C140.908 50.426 141.564 50.3322 141.908 50.1072C142.053 50.0156 142.197 50.0156 142.339 50.1072C143.401 50.8114 144.289 50.6885 145.001 49.7385C145.151 49.5385 145.226 49.3135 145.226 49.0635V48.3947C145.226 48.1739 145.337 48.076 145.558 48.101C145.945 48.151 146.32 48.2531 146.683 48.4072C149.395 49.5635 149.445 45.6697 150.883 44.3135" stroke="#3D1C1F" stroke-width="2"/>
  <path d="M150.883 44.3137C154.708 47.8887 157.305 51.9366 158.676 56.4574C160.101 61.1491 160.572 66.2032 160.089 71.6199C160.072 71.7616 160.008 71.8762 159.895 71.9637L159.545 72.2199C159.333 72.3741 159.237 72.5824 159.258 72.8449C159.478 75.7657 158.985 78.5532 157.776 81.2074C157.655 81.4699 157.562 81.4595 157.495 81.1762L157.358 80.6074C157.328 80.4782 157.249 80.4053 157.12 80.3887C156.353 80.2887 155.699 79.9407 155.158 79.3449C155.095 79.2761 155.047 79.1945 155.016 79.1053C154.986 79.016 154.975 78.921 154.983 78.8262C155.128 76.9387 155.07 75.0532 154.808 73.1699C154.762 72.8491 154.662 72.8303 154.508 73.1137C153.326 75.2637 154.014 77.4074 153.245 79.4574C153.174 79.6574 153.035 79.7324 152.826 79.6824C152.31 79.5532 151.803 79.6407 151.308 79.9449C151.141 80.0491 150.964 80.0657 150.776 79.9949L148.589 79.1449C148.293 79.0324 148.11 79.1303 148.039 79.4387C148.022 79.5262 147.97 79.597 147.883 79.6512C147.628 79.8178 147.508 79.7491 147.52 79.4449L147.558 78.1574C147.562 77.9991 147.487 77.9012 147.333 77.8637C146.883 77.7637 146.689 77.5553 146.751 77.2387C146.788 77.043 146.766 76.8408 146.689 76.6574C145.88 74.7116 144.943 72.8345 143.876 71.0262C143.133 69.7574 140.47 66.6762 139.251 65.9512C132.695 62.0574 126.108 60.2137 119.289 57.8324C117.026 57.0387 113.583 55.3387 113.308 52.6199C113.291 52.4657 113.203 52.3928 113.045 52.4012C111.537 52.4928 110.574 52.7803 110.158 53.2637C100.526 64.4574 85.245 63.6449 72.7888 69.4199C67.745 71.7574 61.8138 71.3824 58.8263 77.1949C57.8888 79.0199 57.2013 83.7387 57.3513 85.8012C57.6138 89.472 57.3992 93.1282 56.7075 96.7699C56.67 96.9741 56.5534 97.1116 56.3575 97.1824C54.7513 97.7824 55.045 99.5949 52.7825 99.0637C52.5825 99.0178 52.3846 99.0282 52.1888 99.0949C51.4929 99.3366 50.9034 99.1491 50.42 98.5324C50.2825 98.3532 50.2221 98.1512 50.2388 97.9262C50.2888 97.2595 50.1638 96.5241 49.8638 95.7199C47.8679 90.4199 45.9825 84.4324 44.2075 77.7574" stroke="#240D14" stroke-width="2"/>
  <path d="M44.2075 77.7573C45.6034 78.2281 46.0992 77.2198 45.695 74.7323C45.6534 74.4656 45.7638 74.3073 46.0263 74.2573L48.1825 73.8323C48.226 73.8231 48.2661 73.8033 48.299 73.7748C48.3319 73.7463 48.3564 73.7101 48.37 73.6698L49.0263 71.9198C49.1054 71.7031 49.2492 71.6406 49.4575 71.7323C51.92 72.8198 52.8263 70.9073 54.1575 69.0136C54.8117 68.0761 55.1804 67.0094 55.2638 65.8136C55.2762 65.6316 55.3206 65.4518 55.395 65.2823L56.3388 63.1823C56.4221 62.999 56.5429 62.849 56.7013 62.7323C57.9388 61.8448 60.0638 58.0698 61.4138 58.5386C61.5196 58.5755 61.6143 58.6388 61.689 58.7223C61.7637 58.8059 61.8161 58.9071 61.841 59.0163C61.866 59.1256 61.8628 59.2395 61.8318 59.3472C61.8008 59.4549 61.743 59.553 61.6638 59.6323C60.1888 61.1073 59.0388 62.8636 58.8325 64.8823C58.7388 65.8386 57.6138 65.9698 57.6638 67.1636C57.665 67.2115 57.6793 67.2581 57.7052 67.2985C57.731 67.3389 57.7676 67.3717 57.8109 67.3934C57.8543 67.415 57.9029 67.4249 57.9517 67.4218C58.0006 67.4188 58.0479 67.403 58.0888 67.3761C68.3638 60.4011 79.4013 56.6948 92.3763 51.5636C95.1513 50.4677 97.9867 49.5511 100.883 48.8136C102.601 48.3761 104.383 47.5073 106.314 47.1698C106.535 47.1281 106.697 47.0094 106.801 46.8136C107.276 45.9261 108.003 45.3761 108.983 45.1636C109.114 45.136 109.234 45.0667 109.323 44.9658C109.412 44.865 109.466 44.7381 109.477 44.604C109.489 44.4698 109.456 44.3356 109.385 44.2214C109.314 44.1071 109.208 44.0189 109.083 43.9698C106.291 42.8781 103.374 42.4031 100.333 42.5448C100.192 42.5533 100.054 42.5133 99.9401 42.4314C99.8264 42.3495 99.7444 42.2306 99.7079 42.0946C99.6713 41.9586 99.6824 41.8137 99.7392 41.6841C99.796 41.5545 99.8951 41.448 100.02 41.3823C102.226 40.2261 106.139 42.2573 108.164 41.4448C108.415 41.344 108.638 41.1783 108.808 40.9664C108.978 40.7544 109.089 40.5043 109.127 40.244C109.165 39.9836 109.13 39.7232 109.025 39.4917C108.92 39.2601 108.749 39.0665 108.533 38.9323L103.383 35.7761" stroke="#36181C" stroke-width="2"/>
  <path d="M44.2076 77.7572C43.7535 73.5614 43.6243 69.5218 43.8201 65.6385C43.8368 65.3718 43.7201 65.2864 43.4701 65.3822C43.2451 65.4656 42.993 65.7906 42.7139 66.3572" stroke="#2C1217" stroke-width="2"/>
  <path d="M42.7139 66.3573L43.1389 63.851" stroke="#68705C" stroke-width="2"/>
  <path d="M144.301 39.5761L150.883 44.3136" stroke="#33161A" stroke-width="2"/>
  <path d="M154.563 47.1448C156.076 48.8781 157.349 50.8469 158.382 53.051" stroke="#4C6054" stroke-width="2"/>
  <path d="M158.382 53.0511C164.964 68.5199 159.782 84.9511 152.414 98.9074C152.31 99.1032 152.364 99.2387 152.576 99.3137C157.068 100.922 160.539 103.839 162.989 108.064" stroke="#3C5550" stroke-width="2"/>
  <path d="M162.989 108.064C169.308 118.207 170.658 130.857 165.445 141.851" stroke="#4C6054" stroke-width="2"/>
  <path d="M165.445 141.851C157.551 155.964 143.282 161.22 127.576 159.345" stroke="#3C5550" stroke-width="2"/>
  <path d="M127.576 159.345L126.558 159.251C126.328 159.23 126.168 159.114 126.076 158.901C123.339 152.605 118.76 148.203 112.339 145.695" stroke="#604C28" stroke-width="2"/>
  <path d="M112.339 145.695L110.464 145.37C110.239 145.332 110.064 145.407 109.939 145.595C109.659 146.016 109.38 146.084 109.101 145.801" stroke="#42291A" stroke-width="2"/>
  <path d="M109.101 145.801C109.82 144.607 107.408 144.726 106.37 144.62" stroke="#7E422B" stroke-width="2"/>
  <path d="M106.37 144.62C105.607 143.699 105.474 142.607 105.97 141.345" stroke="#753C31" stroke-width="2"/>
  <path d="M105.97 141.345C119.745 140.27 134.651 135.345 141.27 121.951C141.403 121.676 141.603 121.614 141.87 121.764L143.288 122.545C143.488 122.657 143.699 122.739 143.92 122.789C150.241 124.209 155.082 122.591 158.445 117.932C161.695 113.426 161.632 108.57 157.851 104.457C156.126 102.589 152.463 100.507 149.97 101.764C147.963 102.776 147.026 106.601 146.932 108.595" stroke="#894E3A" stroke-width="2"/>
  <path d="M146.932 108.595C146.932 110.178 147.13 111.709 147.526 113.189C147.859 114.418 147.453 114.83 146.307 114.426C146.136 114.365 145.985 114.259 145.87 114.12C144.474 112.416 143.416 110.255 142.695 107.639" stroke="#824534" stroke-width="2"/>
  <path d="M142.695 107.639L142.457 101.151" stroke="#8B5D48" stroke-width="2"/>
  <path d="M142.457 101.151C142.907 91.2344 142.901 84.099 142.439 79.7448C141.826 74.0136 137.982 71.3573 132.595 69.3386C124.964 66.4761 118.389 63.7136 112.57 57.7761C112.412 57.6177 112.262 57.6219 112.12 57.7886C105.201 65.8948 92.5949 68.8198 82.0762 70.4886" stroke="#894E3A" stroke-width="2"/>
  <path d="M82.0764 70.4886C74.1431 71.8678 69.0451 72.9136 66.7826 73.6261C60.6514 75.5636 58.8076 80.7011 58.8076 86.6136C58.8076 92.0803 58.816 97.5344 58.8326 102.976" stroke="#8B5D48" stroke-width="2"/>
  <path d="M58.8326 102.976C58.5201 103.051 58.3826 102.964 58.4201 102.714" stroke="#824534" stroke-width="2"/>
  <path d="M58.42 102.714C55.0783 100.98 52.0075 100.947 49.2075 102.614" stroke="#894E3A" stroke-width="2"/>
  <path d="M49.2078 102.614C43.3766 104.857 41.0141 110.545 43.2578 116.501" stroke="#896A53" stroke-width="2"/>
  <path d="M43.2573 116.501C47.3032 122.672 52.9448 124.339 60.1823 121.501" stroke="#894E3A" stroke-width="2"/>
  <path d="M60.1827 121.501C60.0327 121.264 60.1702 121.147 60.5952 121.151" stroke="#824534" stroke-width="2"/>
  <path d="M60.5952 121.151C64.5827 132.557 76.089 138.189 87.4202 140.195" stroke="#8B6351" stroke-width="2"/>
  <path d="M87.4199 140.195L93.8824 141.182" stroke="#894E3A" stroke-width="2"/>
  <path d="M93.8824 141.182C93.8991 142.191 93.7033 143.111 93.2949 143.945" stroke="#753C31" stroke-width="2"/>
  <path d="M93.2951 143.945C93.0159 144.266 92.6764 144.432 92.2764 144.445" stroke="#7E422B" stroke-width="2"/>
  <path d="M92.2765 144.445L89.9077 144.895" stroke="#854A30" stroke-width="2"/>
  <path d="M89.9072 144.895L86.2822 145.788" stroke="#42291A" stroke-width="2"/>
  <path d="M86.2826 145.789L81.7764 147.701" stroke="#604C28" stroke-width="2"/>
  <path d="M81.7764 147.701C73.7139 151.407 71.3701 168.195 70.9326 176.014" stroke="#8B6351" stroke-width="2"/>
  <path d="M70.9322 176.013C70.626 174.62 70.6197 173.182 69.9072 171.92C62.8385 159.407 52.401 149.245 42.3947 139.913C38.3614 136.147 35.1468 131.922 32.751 127.238" stroke="#3C5550" stroke-width="2"/>
  <path d="M32.7514 127.239C30.9931 123.401 29.7535 119.384 29.0327 115.189" stroke="#566454" stroke-width="2"/>
  <path d="M29.0323 115.188L28.9761 114.138" stroke="#8B755E" stroke-width="2"/>
  <path d="M28.9761 114.138C29.0719 114.022 29.1907 113.961 29.3323 113.957C29.4202 113.953 29.5067 113.981 29.5773 114.034C29.6479 114.088 29.6983 114.164 29.7198 114.251C30.7323 118.63 32.2615 122.809 34.3073 126.788C35.0636 128.263 36.2948 128.638 37.8011 128.232C38.0386 128.17 38.1531 128.016 38.1448 127.77C38.0886 125.807 37.6698 121.438 39.8761 120.951C39.9198 120.942 39.9612 120.925 39.9981 120.899C40.035 120.874 40.0665 120.842 40.0909 120.804C40.1153 120.766 40.1321 120.724 40.1403 120.679C40.1485 120.635 40.1479 120.589 40.1386 120.545C39.5823 117.863 38.4573 111.757 40.7948 110.288C40.9531 110.193 41.0615 110.057 41.1198 109.882C42.2282 106.716 43.9969 103.988 46.4261 101.701C46.5969 101.543 46.6636 101.349 46.6261 101.12C46.4094 99.7947 46.7886 98.6593 47.7636 97.7135C47.8336 97.6454 47.8873 97.5628 47.9209 97.4719C47.9544 97.381 47.9669 97.2841 47.9573 97.1885C47.6865 94.0635 47.0011 91.0405 45.9011 88.1197C45.8386 87.9572 45.7219 87.8635 45.5511 87.8385L43.6073 87.551" stroke="#240D14" stroke-width="2"/>
  <path d="M43.6074 87.551L45.0137 87.0135C45.1128 86.9738 45.1989 86.9071 45.2619 86.8209C45.3249 86.7347 45.3623 86.6325 45.3699 86.526C45.3866 86.1801 45.2533 85.8447 44.97 85.5197" stroke="#8B755E" stroke-width="2"/>
  <path d="M44.9699 85.5198C43.3949 78.9948 42.0823 73.8385 42.7136 66.3573" stroke="#566454" stroke-width="2"/>
  <path d="M182.126 112.095C181.547 117.907 180.345 123.574 178.52 129.095" stroke="#5A9886" stroke-width="2"/>
  <path d="M178.52 129.095C176.887 133.857 174.851 138.464 172.414 142.914" stroke="#588B7C" stroke-width="2"/>
  <path d="M172.414 142.914C171.914 142.93 171.509 142.747 171.201 142.364C171.076 142.209 170.922 142.166 170.739 142.232L170.295 142.401C170.249 142.417 170.2 142.422 170.152 142.415C170.105 142.408 170.059 142.39 170.02 142.362C169.98 142.334 169.949 142.296 169.927 142.253C169.905 142.21 169.894 142.162 169.895 142.114C169.92 141.18 169.697 140.343 169.226 139.601C169.101 139.414 168.947 139.384 168.764 139.514L166.857 140.876C166.732 140.964 166.63 141.076 166.551 141.214C166.322 141.614 165.953 141.826 165.445 141.851" stroke="#6EAF95" stroke-width="2"/>
  <path d="M162.989 108.064C163.281 107.822 163.643 107.743 164.077 107.826C164.297 107.868 164.462 107.793 164.57 107.601C175.07 89.0135 174.539 68.4385 161.42 51.201C161.355 51.1162 161.265 51.0539 161.162 51.0229C161.06 50.9919 160.95 50.9938 160.849 51.0283C160.748 51.0627 160.66 51.1281 160.597 51.2151C160.535 51.3021 160.502 51.4065 160.502 51.5135C160.502 51.9385 160.295 52.1323 159.883 52.0948C159.674 52.0781 159.516 52.1594 159.408 52.3385C159.137 52.7719 158.795 53.0094 158.383 53.051" stroke="#6EAF95" stroke-width="2"/>
  <path d="M142.457 101.151L142.42 99.5448C142.416 99.3781 142.334 99.2844 142.176 99.2636L141.976 99.2385C141.772 99.2094 141.666 99.0927 141.657 98.8885C141.62 98.0448 141.17 97.4011 141.176 96.6073C141.193 92.0406 141.128 87.4698 140.982 82.8948C140.801 77.1948 139.732 73.1885 134.232 71.326C130.453 70.0469 127.187 68.8406 124.432 67.7073C120.201 65.9636 116.201 63.1385 112.182 60.6135C112.01 60.5053 111.801 60.4694 111.601 60.5136C110.772 60.6969 110.243 61.176 110.014 61.951C109.951 62.1677 109.826 62.3406 109.639 62.4698C101.889 67.901 91.8886 70.651 82.3199 71.8635C82.1616 71.8844 82.0824 71.8135 82.0824 71.651L82.0762 70.4885" stroke="#FAA472" stroke-width="2"/>
  <path d="M44.9699 85.5197C39.1449 87.5197 34.7907 91.1885 31.9074 96.526C28.2574 103.288 27.8512 107.776 28.3137 115.67C28.3178 115.753 28.3616 115.799 28.4449 115.807L28.6012 115.832C28.8012 115.857 28.9199 115.77 28.9574 115.57L29.0324 115.188" stroke="#C7D3A3" stroke-width="2"/>
  <path d="M32.7512 127.239C32.6595 127.334 32.5428 127.393 32.4012 127.414C32.1845 127.439 32.0241 127.353 31.9199 127.157C30.2741 124.007 29.1574 120.676 28.5699 117.164C28.5532 117.064 28.4949 117.014 28.3949 117.014C28.1449 117.018 27.9032 116.918 27.6699 116.714C24.8199 114.214 24.5324 118.501 22.2074 118.52C22.0074 118.52 21.8512 118.605 21.7387 118.776L20.9199 119.995C20.7949 120.182 20.6657 120.184 20.5324 120.001C20.3199 119.714 20.0637 119.522 19.7637 119.426" stroke="#77B395" stroke-width="2"/>
  <path d="M19.7637 119.426C16.397 101.013 18.2179 83.1052 25.2262 65.701" stroke="#629380" stroke-width="2"/>
  <path d="M29.2653 82.6344C29.25 82.5288 29.2073 82.4282 29.1395 82.3384C29.0716 82.2486 28.98 82.1713 28.8699 82.1109C28.7598 82.0506 28.6333 82.0083 28.4976 81.9866C28.3619 81.9649 28.2197 81.9642 28.0792 81.9844C27.7954 82.0253 27.5354 82.1493 27.3564 82.329C27.1775 82.5087 27.0942 82.7295 27.1249 82.9428C27.1401 83.0484 27.1828 83.149 27.2507 83.2388C27.3185 83.3286 27.4101 83.4059 27.5203 83.4663C27.6304 83.5266 27.7569 83.5689 27.8926 83.5906C28.0282 83.6123 28.1704 83.613 28.311 83.5928C28.5948 83.5519 28.8548 83.4279 29.0337 83.2482C29.2127 83.0685 29.296 82.8477 29.2653 82.6344Z" stroke="#C1D5A9" stroke-width="2"/>
  <path d="M142.695 107.639C141.883 109.097 141.547 110.847 141.689 112.889" stroke="#F39B6D" stroke-width="2"/>
  <path d="M141.689 112.888C141.414 113.138 141.157 113.278 140.92 113.307" stroke="#FAA472" stroke-width="2"/>
  <path d="M140.92 113.307L140.983 112.989C141.033 112.759 140.941 112.624 140.708 112.582C139.349 112.328 138.008 112.043 136.683 111.726C136.564 111.699 136.453 111.645 136.358 111.57C136.262 111.495 136.184 111.4 136.13 111.292C136.075 111.183 136.044 111.064 136.041 110.943C136.037 110.821 136.06 110.7 136.108 110.589C136.233 110.297 136.162 110.174 135.895 110.22C135.708 110.257 135.601 110.37 135.576 110.557C135.41 111.762 134.737 112.543 133.558 112.901" stroke="#FCBA8A" stroke-width="2"/>
  <path d="M133.558 112.901C133.387 112.559 133.362 112.243 133.483 111.951" stroke="#FAD4BA" stroke-width="2"/>
  <path d="M133.483 111.951C134.233 111.422 134.735 110.759 134.989 109.964C135.056 109.759 135.056 109.557 134.989 109.357C133.706 105.295 130.937 102.622 126.683 101.339" stroke="#945E45" stroke-width="2"/>
  <path d="M126.683 101.339C119.645 98.8573 113.639 105.132 116.97 112.064" stroke="#C76B4C" stroke-width="2"/>
  <path d="M116.97 112.064L116.257 112.389" stroke="#FAD4BA" stroke-width="2"/>
  <path d="M116.257 112.389C116.157 112.143 116.053 111.949 115.945 111.807C115.91 111.757 115.857 111.722 115.796 111.711C115.736 111.7 115.674 111.713 115.623 111.748C115.572 111.783 115.538 111.836 115.527 111.897C115.515 111.957 115.529 112.019 115.564 112.07C116.534 113.607 117.799 114.832 119.357 115.745C119.72 115.957 119.691 116.08 119.27 116.114C118.014 116.214 117.645 114.495 116.47 114.27C116.274 114.232 116.095 114.155 115.932 114.039L114.032 112.657C113.874 112.541 113.697 112.509 113.501 112.564C112.651 112.809 112.049 112.53 111.695 111.726C111.655 111.633 111.585 111.557 111.496 111.511C111.406 111.464 111.303 111.451 111.204 111.472C111.105 111.493 111.016 111.548 110.951 111.627C110.887 111.707 110.852 111.806 110.851 111.907V112.864C110.851 113.122 110.759 113.161 110.576 112.982L110.314 112.714C110.164 112.568 109.97 112.48 109.764 112.464C107.893 112.334 106.045 112.141 104.22 111.882C104.162 111.874 104.108 111.847 104.066 111.806C104.025 111.764 103.997 111.711 103.988 111.653C103.979 111.595 103.989 111.536 104.016 111.484C104.043 111.431 104.086 111.389 104.139 111.364L104.42 111.232C104.582 111.157 104.626 111.039 104.551 110.876C103.707 109.089 102.27 110.001 100.814 109.739C100.718 109.72 100.619 109.728 100.527 109.762C100.435 109.797 100.355 109.855 100.295 109.932C99.7948 110.553 99.249 110.707 98.6573 110.395C97.2532 109.649 95.9657 109.545 94.7948 110.082C94.7077 110.122 94.6121 110.138 94.5177 110.129C94.4233 110.121 94.3335 110.087 94.2573 110.032C92.749 108.936 91.3053 108.98 89.9261 110.164C89.7928 110.276 89.6386 110.332 89.4636 110.332C88.6761 110.339 86.6511 111.12 86.1948 110.332C86.1073 110.178 86.0386 110.186 85.9886 110.357C85.3177 112.657 83.9386 114.303 81.8511 115.295" stroke="#FCBA8A" stroke-width="2"/>
  <path d="M81.8512 115.295C81.8303 114.57 81.6137 114.216 81.2012 114.232" stroke="#FAD4BA" stroke-width="2"/>
  <path d="M81.2012 114.232C83.2428 113.299 84.2532 111.907 84.2324 110.057" stroke="#B46D4D" stroke-width="2"/>
  <path d="M84.2324 110.057C84.5116 108.466 84.2408 106.87 83.4199 105.27" stroke="#945E45" stroke-width="2"/>
  <path d="M83.4203 105.27C84.037 104.636 83.3995 103.786 81.5078 102.72" stroke="#A4664A" stroke-width="2"/>
  <path d="M81.5076 102.72C81.9784 102.603 82.2701 102.359 82.3826 101.989C82.4535 101.747 82.3826 101.555 82.1701 101.414L80.9138 100.557C80.7388 100.436 80.543 100.37 80.3263 100.357C72.9513 99.9698 66.2264 102.632 64.6951 110.476C64.6576 110.668 64.5743 110.839 64.4451 110.989C62.8326 112.914 62.0909 114.905 62.2201 116.964C62.2909 118.039 62.2909 118.876 62.2201 119.476C62.2122 119.542 62.1823 119.603 62.1351 119.65C62.088 119.696 62.0265 119.726 61.9606 119.733C61.8946 119.74 61.8282 119.725 61.772 119.69C61.7159 119.654 61.6734 119.601 61.6514 119.539C61.3222 118.618 61.0972 117.682 60.9764 116.732C60.9472 116.528 60.8305 116.434 60.6264 116.451C60.4889 116.468 60.3305 116.536 60.1514 116.657" stroke="#FCBA8A" stroke-width="2"/>
  <path d="M60.1513 116.657L58.8325 102.976" stroke="#F39B6D" stroke-width="2"/>
  <path d="M67.6511 92.8948C66.0198 94.6323 64.5823 95.8448 65.8386 97.9635C65.8647 98.0085 65.9015 98.0462 65.9459 98.0734C65.9903 98.1006 66.0408 98.1164 66.0932 98.1195C66.1456 98.1226 66.1982 98.1128 66.2464 98.0911C66.2946 98.0694 66.337 98.0363 66.3699 97.9948C69.4011 94.001 72.1011 90.9573 77.3511 91.0448C78.6886 91.0698 80.3448 91.7198 81.9323 91.801C82.1448 91.8135 82.3323 91.7469 82.4948 91.601C84.6198 89.701 82.4448 87.0635 80.2073 87.176C75.1865 87.4302 71.0011 89.3365 67.6511 92.8948Z" stroke="#945E45" stroke-width="2"/>
  <path d="M119.295 87.3136C114.82 86.7948 114.439 93.0698 119.02 91.8386C125.251 90.1636 129.801 93.0198 133.345 98.0011C133.482 98.1927 133.641 98.2115 133.82 98.0573C134.953 97.0782 134.984 95.9969 133.914 94.8136C129.98 90.4844 125.107 87.9844 119.295 87.3136Z" stroke="#945E45" stroke-width="2"/>
  <path d="M19.7637 119.426L21.2887 125.676" stroke="#48847C" stroke-width="2"/>
  <path d="M43.6079 87.551C32.6891 91.3885 27.6204 103.157 28.9766 114.138" stroke="#957C63" stroke-width="2"/>
  <path d="M42.2639 92.6323C36.3326 95.3823 30.8264 104.295 31.9514 111.076C31.993 111.33 32.1326 111.409 32.3701 111.314C33.4201 110.893 34.3368 110.12 35.1201 108.995C36.5576 106.92 48.4764 91.251 42.5639 92.5323C42.4601 92.553 42.3593 92.5866 42.2639 92.6323Z" stroke="#703F27" stroke-width="2"/>
  <path d="M81.5075 102.72C74.4263 97.5636 59.9263 108.745 68.0513 113.445" stroke="#A46C53" stroke-width="2"/>
  <path d="M68.0513 113.445C69.2346 115.057 70.5429 115.782 71.9762 115.62" stroke="#D79564" stroke-width="2"/>
  <path d="M71.9766 115.62C75.3307 116.461 78.6224 116.353 81.8516 115.295" stroke="#FADBC3" stroke-width="2"/>
  <path d="M116.257 112.389C117.786 114.351 119.666 115.512 121.895 115.87C125.27 116.414 131.139 115.757 133.557 112.901" stroke="#FADBC3" stroke-width="2"/>
  <path d="M140.92 113.307C138.914 121.27 134.895 124.551 128.626 129.532C122.195 134.639 113.82 137.62 105.845 139.164C102.857 139.745 99.5573 139.645 96.4073 139.732C91.9386 139.857 88.226 139.114 84.0573 138.032C84.0121 138.02 83.9644 138.023 83.9211 138.04C83.8779 138.058 83.8415 138.089 83.817 138.13C83.7926 138.17 83.7816 138.218 83.7854 138.265C83.7893 138.313 83.8079 138.358 83.8386 138.395C84.1677 138.778 84.5906 139.043 85.1073 139.189C85.2698 139.234 85.4344 139.259 85.601 139.264C86.3094 139.272 86.9156 139.582 87.4198 140.195" stroke="#FAAB7C" stroke-width="2"/>
  <path d="M60.5951 121.151L60.1514 116.657" stroke="#F3A276" stroke-width="2"/>
  <path d="M101.939 121.814C99.9386 122.214 99.0261 122.757 96.7698 121.539C96.732 121.518 96.6884 121.51 96.6457 121.517C96.6031 121.524 96.5639 121.544 96.5344 121.576C96.505 121.608 96.4869 121.648 96.4832 121.691C96.4794 121.734 96.4901 121.777 96.5136 121.814C97.6011 123.514 100.582 122.801 102.014 122.014C102.422 121.784 102.397 121.718 101.939 121.814Z" stroke="#E69973" stroke-width="2"/>
  <path d="M92.4327 128.545C92.166 128.178 91.8035 127.834 91.3452 127.514C90.9785 127.259 90.916 127.32 91.1577 127.695C93.9764 132.051 97.5389 135.276 103.145 133.582C105.554 132.857 107.224 131.157 108.158 128.482" stroke="#A7634D" stroke-width="2"/>
  <path d="M108.158 128.482C108.57 127.928 108.778 127.628 108.783 127.582C108.908 126.745 108.574 126.478 107.783 126.782C102.008 129.007 98.1826 128.364 92.4326 128.545" stroke="#F3A276" stroke-width="2"/>
  <path d="M108.158 128.482C104.77 129.582 95.3014 131.345 92.4326 128.545" stroke="#9E4530" stroke-width="2"/>
  <path d="M126.682 101.339C121.864 102.007 117.095 103.007 117.257 108.632C117.299 110.107 117.907 111.184 119.082 111.863" stroke="#601611" stroke-width="2"/>
  <path d="M119.083 111.863C119.249 112.326 119.53 112.651 119.926 112.838C120.08 112.909 120.237 112.916 120.395 112.857L124.814 111.232C124.994 111.164 125.194 111.168 125.37 111.245L126.389 111.688" stroke="#802519" stroke-width="2"/>
  <path d="M126.388 111.689C123.159 115.393 120.02 115.518 116.97 112.064" stroke="#C68C86" stroke-width="2"/>
  <path d="M58.4198 102.714C57.9573 102.851 57.5677 103.093 57.251 103.439C57.1219 103.58 57.0511 103.749 57.0386 103.945L56.8386 107.626C56.8261 107.804 56.8495 107.984 56.9073 108.157C57.074 108.653 56.9177 109.009 56.4385 109.226C53.4135 110.595 50.1198 112.07 50.2073 115.839C50.2948 119.826 55.0073 121.289 58.1573 121.407C58.3725 121.415 58.5849 121.354 58.7635 121.232L59.5698 120.689C59.7656 120.555 59.899 120.601 59.9698 120.826L60.1823 121.501" stroke="#F18C5F" stroke-width="2"/>
  <path d="M43.2573 116.501L43.6073 116.089C43.7323 115.943 43.774 115.776 43.7323 115.589C42.6032 110.572 44.4282 106.247 49.2073 102.614" stroke="#F8B17E" stroke-width="2"/>
  <path d="M83.4201 105.27C81.6409 103.616 79.7805 103.018 77.8389 103.476" stroke="#3D110E" stroke-width="2"/>
  <path d="M77.8389 103.476C76.4681 103.08 75.3389 103.026 74.4514 103.313C69.3681 104.955 67.1535 108.305 67.8077 113.363" stroke="#A28783" stroke-width="2"/>
  <path d="M67.8076 113.364C67.8868 113.393 67.968 113.42 68.0514 113.445" stroke="#7F4124" stroke-width="2"/>
  <path d="M133.483 111.951C133.128 107.363 130.995 104.334 127.083 102.863C125.714 102.351 119.958 103.582 123.376 105.832C123.543 105.941 123.716 105.955 123.895 105.876L124.764 105.495" stroke="#937F7E" stroke-width="2"/>
  <path d="M124.764 105.495C125.072 105.503 125.226 105.616 125.226 105.832C125.243 109.912 123.195 111.922 119.083 111.864" stroke="#4D1812" stroke-width="2"/>
  <path d="M105.97 141.345L93.8823 141.182" stroke="#E4845C" stroke-width="2"/>
  <path d="M141.689 112.889L140.908 120.395C140.89 120.557 140.915 120.724 140.98 120.876C141.044 121.027 141.145 121.157 141.27 121.248C141.394 121.34 141.537 121.389 141.681 121.389C141.824 121.39 141.962 121.342 142.076 121.251C142.351 121.039 142.549 121.103 142.67 121.445C142.728 121.608 142.84 121.747 142.988 121.837C143.136 121.927 143.311 121.963 143.483 121.939C147.016 121.439 149.633 119.778 151.333 116.957C153.958 112.601 150.714 109.87 146.933 108.595" stroke="#F18C5F" stroke-width="2"/>
  <path d="M126.389 111.689C127.639 109.995 128.445 106.226 126.32 104.689C126.233 104.626 126.127 104.594 126.02 104.597C125.912 104.6 125.809 104.639 125.726 104.707L124.764 105.495" stroke="#B38E87" stroke-width="2"/>
  <path d="M77.8389 103.476C78.0639 105.626 77.4805 106.853 76.0889 107.157" stroke="#937F7E" stroke-width="2"/>
  <path d="M76.0888 107.157C75.568 106.845 75.3951 106.211 75.5701 105.257C75.6076 105.049 75.5201 104.945 75.3076 104.945C74.5742 104.949 74.1034 105.28 73.8951 105.939C72.7326 109.645 74.7201 112.739 77.8701 114.414C78.9617 114.997 80.0721 114.936 81.2013 114.232" stroke="#B38E87" stroke-width="2"/>
  <path d="M71.9764 115.62L67.8076 113.364" stroke="#D5B094" stroke-width="2"/>
  <path d="M84.2326 110.057C82.1159 112.578 79.9847 113.141 77.8389 111.745C77.6597 111.628 77.518 111.476 77.4139 111.289C77.2305 110.968 76.9722 110.722 76.6389 110.551C76.4597 110.459 76.3243 110.324 76.2326 110.145C75.7326 109.141 75.6847 108.145 76.0889 107.157" stroke="#4D1812" stroke-width="2"/>
  <path d="M70.9326 176.013C71.0576 176.509 71.0597 177.018 70.9389 177.538" stroke="#ADB292" stroke-width="2"/>
  <path d="M70.939 177.539C70.9723 177.897 70.8369 178.328 70.5327 178.832" stroke="#829B69" stroke-width="2"/>
  <path d="M70.5323 178.832C57.4073 173.741 46.2511 165.772 37.0636 154.926C29.7552 146.301 24.4969 136.551 21.2886 125.676" stroke="#478079" stroke-width="2"/>
  <path d="M70.5327 178.832L78.5577 181.001C78.5969 181.012 78.638 181.015 78.6782 181.008C78.7184 181.002 78.7568 180.987 78.7907 180.965C78.8245 180.942 78.8531 180.912 78.8744 180.878C78.8957 180.843 78.9092 180.804 78.914 180.764L79.6202 174.964" stroke="#6C7751" stroke-width="2"/>
  <path d="M79.6201 174.964C80.0076 175.168 80.3118 175.003 80.5326 174.47C80.6201 174.266 80.7722 174.147 80.9888 174.114C81.368 174.055 81.8263 174.174 82.3638 174.47" stroke="#2A3135" stroke-width="2"/>
  <path d="M82.3636 174.47L82.2511 181.564C82.2491 181.657 82.2799 181.748 82.3382 181.821C82.3964 181.894 82.4783 181.945 82.5698 181.964C94.524 184.53 106.455 184.491 118.364 181.845" stroke="#6C7751" stroke-width="2"/>
  <path d="M118.364 181.845L123.095 180.726C123.341 180.668 123.441 180.516 123.395 180.27L122.289 173.932C122.242 173.666 122.108 173.423 121.908 173.242C121.707 173.061 121.452 172.952 121.183 172.932C119.674 172.816 118.853 172.076 118.72 170.714" stroke="#416C63" stroke-width="2"/>
  <path d="M118.72 170.714C118.962 170.201 119.335 169.903 119.839 169.82" stroke="#586E60" stroke-width="2"/>
  <path d="M119.839 169.82C122.976 170.701 123.77 177.551 123.958 180.057C123.974 180.274 124.091 180.359 124.308 180.314C127.07 179.684 129.812 178.732 132.533 177.457" stroke="#6C7751" stroke-width="2"/>
  <path d="M132.532 177.457C150.003 170.782 163.297 159.268 172.413 142.914" stroke="#478079" stroke-width="2"/>
  <path d="M98.5263 132.788C98.4429 132.972 98.495 133.105 98.6825 133.188C99.9638 133.776 104.032 133.113 104.726 131.851C104.864 131.601 104.791 131.482 104.507 131.495C103.189 131.551 99.1263 131.47 98.5263 132.788Z" stroke="#881E16" stroke-width="2"/>
  <path d="M132.532 177.457C130.764 170.157 128.389 165.132 126.832 159.901C126.762 159.655 126.849 159.505 127.095 159.451L127.576 159.345" stroke="#829B69" stroke-width="2"/>
  <path d="M106.37 144.62C104.339 145.12 94.0699 146.295 93.2949 143.945" stroke="#D9784D" stroke-width="2"/>
  <path d="M109.101 145.801L108.107 148.764" stroke="#A66436" stroke-width="2"/>
  <path d="M108.108 148.764L107.514 146.601C107.488 146.503 107.439 146.413 107.371 146.338C107.303 146.263 107.219 146.204 107.125 146.168C107.03 146.131 106.929 146.118 106.828 146.128C106.727 146.138 106.63 146.172 106.545 146.226C104.058 147.818 101.795 149.674 99.7576 151.795C99.6201 151.937 99.4805 151.939 99.3389 151.801L93.3013 145.926C93.1305 145.764 92.9826 145.582 92.8576 145.382L92.2764 144.445" stroke="#E9854C" stroke-width="2"/>
  <path d="M108.107 148.763C106.663 152.657 102.938 157.845 98.7947 158.863C97.8739 159.088 97.1634 159.013 96.6634 158.638C92.1218 155.23 89.8697 150.649 89.9072 144.895" stroke="#AC6C3B" stroke-width="2"/>
  <path d="M112.339 145.695C112.214 150.157 111.007 157.001 107.595 159.82C107.436 159.949 107.268 159.962 107.089 159.857C106.505 159.512 106.189 158.984 106.139 158.276C106.136 158.214 106.112 158.156 106.07 158.11C106.029 158.064 105.972 158.035 105.911 158.027C105.85 158.018 105.788 158.032 105.736 158.065C105.684 158.098 105.645 158.149 105.626 158.207L103.826 163.057C103.784 163.169 103.715 163.268 103.626 163.346C103.536 163.424 103.428 163.478 103.311 163.503C103.195 163.529 103.074 163.525 102.96 163.492C102.846 163.459 102.742 163.397 102.657 163.314C101.12 161.764 99.0824 160.276 97.2324 162.526C94.9199 165.351 92.5448 159.857 92.2011 158.214C92.1836 158.134 92.1449 158.06 92.089 158C92.0332 157.94 91.9622 157.896 91.8835 157.873C91.8049 157.85 91.7214 157.849 91.642 157.869C91.5626 157.889 91.4902 157.931 91.4323 157.989L90.1761 159.245C90.0874 159.333 89.9808 159.4 89.8636 159.443C89.7464 159.485 89.6215 159.501 89.4977 159.491C89.3739 159.48 89.2541 159.442 89.1467 159.381C89.0394 159.319 88.947 159.234 88.8761 159.132C86.1511 155.245 86.0261 151.451 86.2823 145.789" stroke="#886E33" stroke-width="2"/>
  <path d="M119.839 169.82L121.139 160.189C121.148 160.111 121.131 160.033 121.089 159.967C121.048 159.901 120.986 159.851 120.913 159.825C120.84 159.798 120.76 159.798 120.686 159.823C120.612 159.848 120.549 159.898 120.508 159.964C120.32 160.272 120.045 160.311 119.683 160.082C119.52 159.978 119.397 159.839 119.314 159.664C118.043 156.993 117.181 153.991 116.726 150.657C116.706 150.503 116.612 150.422 116.445 150.414C116.312 150.409 116.251 150.474 116.264 150.607L118.22 172.551" stroke="#938951" stroke-width="2"/>
  <path d="M118.22 172.551L118.364 181.845" stroke="#7B8653" stroke-width="2"/>
  <path d="M82.3638 174.47C82.4722 170.062 82.9472 165.724 83.7889 161.457C83.8847 160.974 83.8618 160.968 83.7201 161.439L79.6201 174.964" stroke="#644B25" stroke-width="2"/>
  <path d="M70.9385 177.539L71.3572 178.201C71.5072 178.434 71.6135 178.416 71.676 178.145C71.9426 177.057 72.1593 175.418 72.326 173.226C72.5822 169.864 74.2635 162.814 75.0197 160.064C76.2947 155.447 78.5468 151.326 81.776 147.701" stroke="#D1A96A" stroke-width="2"/>
  <path d="M118.72 170.714C118.707 171.318 118.541 171.93 118.22 172.551" stroke="#687E63" stroke-width="2"/>
  <path d="M127.264 21.7198C125.993 22.749 124.643 23.0511 123.214 22.6261C123.03 22.5719 122.849 22.5781 122.67 22.6448L117.67 24.4948C117.453 24.574 117.345 24.7281 117.345 24.9573C117.345 26.1198 116.839 26.8573 115.826 27.1698C112.564 28.1823 109.539 30.0136 106.351 31.3323C105.714 31.5948 105.093 32.1636 104.489 33.0386C104.372 33.2052 104.412 33.3198 104.608 33.3823C105.424 33.6406 106.137 34.0844 106.745 34.7136C106.77 34.7427 106.783 34.7781 106.783 34.8198C106.778 34.874 106.77 34.9281 106.758 34.9823C106.724 35.0906 106.764 35.1448 106.876 35.1448C107.808 35.1448 108.214 36.6511 107.626 36.7886L105.151 35.4511C105.839 34.5886 103.933 34.1386 103.351 33.8948C99.3054 32.1948 94.8763 31.2886 90.0638 31.1761C75.745 30.8448 60.7763 34.9323 50.545 45.2323C50.3242 45.4573 50.0992 45.8115 49.87 46.2948C49.395 47.3011 48.295 47.9636 47.8325 48.6698C45.1825 52.7198 43.4763 57.1469 42.7138 61.951C41.5513 62.0719 40.9304 61.6927 40.8513 60.8136C40.8417 60.7113 40.8076 60.6129 40.7521 60.5269C40.6966 60.441 40.6213 60.3699 40.5325 60.3198C39.5992 59.7948 38.7763 59.9323 38.0638 60.7323C37.9263 60.8865 37.7596 60.999 37.5638 61.0698C37.2638 61.1761 29.2138 63.4448 29.1138 64.551C29.1013 64.7344 29.0075 64.8531 28.8325 64.9073C28.3534 65.0615 27.8867 65.0052 27.4325 64.7386C27.2284 64.6219 27.0721 64.6677 26.9638 64.8761L26.7575 65.2511C26.5992 65.5511 26.4117 65.5698 26.195 65.3073L25.8013 64.826C29.6054 56.0719 34.8534 48.224 41.545 41.2823C47.4117 35.2781 54.1867 30.3136 61.87 26.3886C82.445 15.8136 105.326 13.7573 127.264 21.7198Z" fill="#AECD9E"/>
  <path d="M127.264 21.72C138.851 25.7866 149.032 32.0866 157.807 40.62L157.482 41.3637C157.37 41.6346 157.459 41.77 157.751 41.77H158.039C158.072 41.7721 158.104 41.7854 158.129 41.8079C158.155 41.8304 158.171 41.8608 158.177 41.894C158.183 41.9272 158.177 41.9614 158.161 41.9911C158.145 42.0208 158.12 42.0441 158.089 42.0575C157.322 42.3408 156.791 42.2991 156.495 41.9325C156.357 41.7575 156.18 41.6408 155.964 41.5825C155.03 41.3283 154.205 40.8783 153.489 40.2325C153.33 40.0866 153.164 40.0783 152.989 40.2075C152.076 40.8825 151.909 41.7304 152.489 42.7512C152.514 42.7971 152.509 42.8387 152.476 42.8762C152.43 42.9221 152.393 42.9616 152.364 42.995C152.36 43.0004 152.357 43.007 152.357 43.0137C152.357 43.0205 152.36 43.0271 152.364 43.0325C153.093 44.0658 153.866 45.0596 154.682 46.0137C154.812 46.1637 154.828 46.3262 154.732 46.5012C154.628 46.6887 154.572 46.9033 154.564 47.145C151.755 43.7575 148.335 41.2346 144.301 39.5762C136.718 35.7471 129.193 35.8054 121.726 39.7512C119.172 41.3262 117.024 43.2262 115.282 45.4512C115.128 45.6512 114.993 45.6387 114.876 45.4137C113.068 41.9596 110.651 39.0846 107.626 36.7887C108.214 36.6512 107.807 35.145 106.876 35.145C106.764 35.145 106.724 35.0908 106.757 34.9825C106.77 34.9283 106.778 34.8741 106.782 34.82C106.782 34.7783 106.77 34.7429 106.745 34.7137C106.137 34.0846 105.424 33.6408 104.607 33.3825C104.412 33.32 104.372 33.2054 104.489 33.0387C105.093 32.1637 105.714 31.595 106.351 31.3325C109.539 30.0137 112.564 28.1825 115.826 27.17C116.839 26.8575 117.345 26.12 117.345 24.9575C117.345 24.7283 117.453 24.5741 117.67 24.495L122.67 22.645C122.849 22.5783 123.03 22.5721 123.214 22.6262C124.643 23.0512 125.993 22.7491 127.264 21.72Z" fill="#A5CBA5"/>
  <path d="M105.151 35.4511L101.189 33.9573C83.6701 28.8636 60.0451 35.6573 48.7388 50.1261C45.8305 54.2427 43.9638 58.8177 43.1388 63.8511C42.2722 64.3802 42.1305 63.7469 42.7138 61.9511C43.4763 57.1469 45.1826 52.7198 47.8326 48.6698C48.2951 47.9636 49.3951 47.3011 49.8701 46.2948C50.0993 45.8115 50.3243 45.4573 50.5451 45.2323C60.7763 34.9323 75.7451 30.8448 90.0638 31.1761C94.8763 31.2886 99.3055 32.1948 103.351 33.8948C103.933 34.1386 105.839 34.5886 105.151 35.4511Z" fill="#F7CD97"/>
  <path d="M101.188 33.9573C100.201 35.1073 102.663 35.3885 103.382 35.776C103.261 36.0385 103.284 36.3364 103.451 36.6698C103.493 36.7527 103.507 36.847 103.491 36.9391C103.475 37.0312 103.43 37.1164 103.363 37.1823C102.867 37.6739 102.278 37.8469 101.595 37.701C101.432 37.6677 101.282 37.6969 101.145 37.7885C100.353 38.3052 99.4716 38.5844 98.5008 38.626C98.3761 38.6319 98.2569 38.6778 98.161 38.7567C98.0652 38.8356 97.998 38.9433 97.9696 39.0635L97.807 39.7385C97.783 39.8384 97.7304 39.929 97.656 39.9989C97.5815 40.0689 97.4885 40.1153 97.3883 40.1323C88.1508 41.6156 79.3758 44.4698 71.0633 48.6948C68.8821 49.801 66.6633 51.4823 64.4258 52.8385C64.3613 52.8799 64.2847 52.8981 64.2085 52.8902C64.1322 52.8822 64.061 52.8486 64.0065 52.7947C63.9519 52.7409 63.9173 52.6701 63.9083 52.594C63.8993 52.518 63.9165 52.4411 63.957 52.376L64.9258 50.6948C64.9594 50.6407 64.9733 50.5767 64.9649 50.5136C64.9566 50.4505 64.9267 50.3923 64.8803 50.3488C64.8338 50.3053 64.7737 50.2793 64.7102 50.2751C64.6467 50.2709 64.5838 50.2889 64.5321 50.326C61.2883 52.5385 59.5133 54.6948 57.7633 58.151C57.0258 59.601 55.9258 60.7531 54.4633 61.6073C54.4226 61.6313 54.3772 61.6464 54.3301 61.6515C54.283 61.6566 54.2352 61.6516 54.1899 61.6368C54.1445 61.6221 54.1026 61.598 54.0668 61.566C54.031 61.5339 54.0021 61.4948 53.9821 61.451L52.982 59.1823C52.8987 58.9864 52.905 58.7948 53.0008 58.6073C54.7841 55.2281 57.1716 52.3573 60.1633 49.9948C60.2469 49.9287 60.3041 49.8347 60.3247 49.7294C60.3453 49.6241 60.328 49.5144 60.2758 49.4198C60.1508 49.1989 59.9612 49.1823 59.707 49.3698C55.132 52.7823 51.9612 57.2156 50.1946 62.6698C50.1362 62.8531 50.0175 62.9864 49.8383 63.0698L47.4196 64.1448C47.2987 64.1977 47.1625 64.2025 47.0391 64.1582C46.9157 64.114 46.8147 64.0241 46.7571 63.9073C46.3404 63.0656 45.68 62.5219 44.7758 62.276C44.53 62.2094 44.4341 62.051 44.4883 61.801C45.2675 58.1885 46.657 54.8385 48.657 51.751C48.8945 51.3885 48.9216 50.8469 48.7383 50.126C60.0445 35.6573 83.6695 28.8635 101.188 33.9573ZM91.6508 35.051C91.7413 34.9792 91.8067 34.881 91.8382 34.77C91.8697 34.6591 91.8655 34.5409 91.8264 34.4318C91.7873 34.3227 91.7151 34.228 91.6198 34.1609C91.5245 34.0938 91.4109 34.0576 91.2946 34.0573C83.3133 34.0948 74.4446 35.676 68.9821 41.7135C68.9659 41.7338 68.9564 41.7585 68.9549 41.7843C68.9534 41.8102 68.96 41.8359 68.9737 41.8578C68.9874 41.8798 69.0076 41.8969 69.0315 41.9069C69.0554 41.9169 69.0818 41.9192 69.1071 41.9135C75.9487 40.0344 82.7633 38.0906 89.5508 36.0823C90.4175 35.8281 91.1175 35.4844 91.6508 35.051Z" fill="#4C2524"/>
  <path d="M101.189 33.9574L105.151 35.4511L107.626 36.7886C110.651 39.0844 113.068 41.9595 114.876 45.4136C114.993 45.6386 115.128 45.6511 115.283 45.4511C117.024 43.2261 119.172 41.3261 121.726 39.7511C121.922 41.4553 121.091 42.924 119.233 44.1574C119.047 44.2826 118.912 44.4686 118.851 44.6824C118.643 45.4574 118.833 45.9719 119.42 46.2261C119.503 46.2613 119.577 46.3141 119.638 46.3808C119.7 46.4476 119.747 46.5269 119.776 46.6136L120.27 48.0824C120.299 48.1694 120.36 48.2422 120.441 48.2863C120.522 48.3303 120.617 48.3423 120.708 48.3199C124.076 47.5449 127.314 47.5261 130.845 47.2449C134.083 46.9949 137.526 48.5949 140.551 50.2324C140.908 50.4261 141.564 50.3324 141.908 50.1074C142.053 50.0157 142.197 50.0157 142.339 50.1074C143.401 50.8115 144.289 50.6886 145.001 49.7386C145.151 49.5386 145.226 49.3136 145.226 49.0636V48.3949C145.226 48.174 145.337 48.0761 145.558 48.1011C145.945 48.1511 146.32 48.2532 146.683 48.4074C149.395 49.5636 149.445 45.6699 150.883 44.3136C154.708 47.8886 157.305 51.9365 158.676 56.4574C160.101 61.149 160.572 66.2032 160.089 71.6199C160.072 71.7615 160.008 71.8761 159.895 71.9636L159.545 72.2199C159.333 72.374 159.237 72.5824 159.258 72.8449C159.478 75.7657 158.985 78.5532 157.776 81.2074C157.655 81.4699 157.562 81.4595 157.495 81.1761L157.358 80.6074C157.328 80.4782 157.249 80.4053 157.12 80.3886C156.353 80.2886 155.699 79.9407 155.158 79.3449C155.095 79.2761 155.047 79.1945 155.016 79.1052C154.986 79.016 154.975 78.9209 154.983 78.8261C155.128 76.9386 155.07 75.0532 154.808 73.1699C154.762 72.849 154.662 72.8303 154.508 73.1136C153.326 75.2636 154.014 77.4074 153.245 79.4574C153.174 79.6574 153.035 79.7324 152.826 79.6824C152.31 79.5532 151.803 79.6407 151.308 79.9449C151.141 80.049 150.964 80.0657 150.776 79.9949L148.589 79.1449C148.293 79.0324 148.11 79.1303 148.039 79.4386C148.022 79.5261 147.97 79.597 147.883 79.6511C147.628 79.8178 147.508 79.749 147.52 79.4449L147.558 78.1574C147.562 77.999 147.487 77.9011 147.333 77.8636C146.883 77.7636 146.689 77.5553 146.751 77.2386C146.788 77.0429 146.766 76.8408 146.689 76.6574C145.88 74.7115 144.943 72.8344 143.876 71.0261C143.133 69.7574 140.47 66.6761 139.251 65.9511C132.695 62.0574 126.108 60.2136 119.289 57.8324C117.026 57.0386 113.583 55.3386 113.308 52.6199C113.291 52.4657 113.203 52.3928 113.045 52.4011C111.537 52.4928 110.574 52.7803 110.158 53.2636C100.526 64.4574 85.245 63.6449 72.7888 69.4199C67.745 71.7574 61.8138 71.3824 58.8263 77.1949C57.8888 79.0199 57.2013 83.7386 57.3513 85.8011C57.6138 89.4719 57.3992 93.1282 56.7075 96.7699C56.67 96.974 56.5534 97.1115 56.3575 97.1824C54.7513 97.7824 55.045 99.5949 52.7825 99.0636C52.5825 99.0178 52.3846 99.0282 52.1888 99.0949C51.4929 99.3365 50.9034 99.149 50.42 98.5324C50.2825 98.3532 50.2221 98.1511 50.2388 97.9261C50.2888 97.2595 50.1638 96.524 49.8638 95.7199C47.8679 90.4199 45.9825 84.4324 44.2075 77.7574C45.6034 78.2282 46.0992 77.2199 45.695 74.7324C45.6534 74.4657 45.7638 74.3074 46.0263 74.2574L48.1825 73.8324C48.226 73.8232 48.2661 73.8034 48.299 73.7749C48.3319 73.7464 48.3564 73.7102 48.37 73.6699L49.0263 71.9199C49.1054 71.7032 49.2492 71.6407 49.4575 71.7324C51.92 72.8199 52.8263 70.9074 54.1575 69.0136C54.8117 68.0761 55.1804 67.0095 55.2638 65.8136C55.2762 65.6316 55.3206 65.4519 55.395 65.2824L56.3388 63.1824C56.4221 62.999 56.5429 62.849 56.7013 62.7324C57.9388 61.8449 60.0638 58.0699 61.4138 58.5386C61.5196 58.5756 61.6143 58.6388 61.689 58.7224C61.7637 58.806 61.8161 58.9071 61.841 59.0164C61.866 59.1257 61.8628 59.2395 61.8318 59.3472C61.8008 59.455 61.743 59.5531 61.6638 59.6324C60.1888 61.1074 59.0388 62.8636 58.8325 64.8824C58.7388 65.8386 57.6138 65.9699 57.6638 67.1636C57.665 67.2116 57.6793 67.2582 57.7052 67.2986C57.731 67.339 57.7676 67.3717 57.8109 67.3934C57.8543 67.4151 57.9029 67.4249 57.9517 67.4219C58.0006 67.4188 58.0479 67.403 58.0888 67.3761C68.3638 60.4011 79.4013 56.6949 92.3763 51.5636C95.1513 50.4678 97.9867 49.5511 100.883 48.8136C102.601 48.3761 104.383 47.5074 106.314 47.1699C106.535 47.1282 106.697 47.0095 106.801 46.8136C107.276 45.9261 108.003 45.3761 108.983 45.1636C109.114 45.1361 109.234 45.0667 109.323 44.9659C109.412 44.8651 109.466 44.7382 109.477 44.604C109.489 44.4699 109.456 44.3357 109.385 44.2214C109.314 44.1072 109.208 44.0189 109.083 43.9699C106.291 42.8782 103.374 42.4032 100.333 42.5449C100.192 42.5534 100.054 42.5134 99.9401 42.4314C99.8264 42.3495 99.7444 42.2306 99.7079 42.0946C99.6713 41.9587 99.6824 41.8138 99.7392 41.6841C99.796 41.5545 99.8951 41.448 100.02 41.3824C102.226 40.2261 106.139 42.2574 108.164 41.4449C108.415 41.344 108.638 41.1784 108.808 40.9664C108.978 40.7544 109.089 40.5044 109.127 40.244C109.165 39.9837 109.13 39.7233 109.025 39.4917C108.92 39.2602 108.749 39.0665 108.533 38.9324L103.383 35.7761C102.664 35.3886 100.201 35.1074 101.189 33.9574Z" fill="#2E1319"/>
  <path d="M91.6512 35.0511C91.1178 35.4844 90.4178 35.8281 89.5511 36.0823C82.7636 38.0906 75.9491 40.0344 69.1074 41.9136C69.0822 41.9192 69.0557 41.9169 69.0318 41.9069C69.008 41.8969 68.9878 41.8798 68.9741 41.8578C68.9603 41.8359 68.9538 41.8102 68.9553 41.7844C68.9568 41.7585 68.9663 41.7338 68.9824 41.7136C74.4449 35.6761 83.3137 34.0948 91.2949 34.0573C91.4112 34.0577 91.5249 34.0939 91.6202 34.161C91.7154 34.2281 91.7876 34.3227 91.8268 34.4318C91.8659 34.5409 91.87 34.6591 91.8386 34.7701C91.8071 34.881 91.7416 34.9792 91.6512 35.0511Z" fill="#F7CD97"/>
  <path d="M103.383 35.7761L108.533 38.9323C108.75 39.0665 108.92 39.2601 109.025 39.4917C109.13 39.7232 109.165 39.9836 109.127 40.244C109.089 40.5043 108.978 40.7544 108.808 40.9664C108.638 41.1783 108.415 41.344 108.164 41.4448C106.139 42.2573 102.226 40.2261 100.02 41.3823C99.8952 41.448 99.7961 41.5545 99.7393 41.6841C99.6825 41.8137 99.6714 41.9586 99.708 42.0946C99.7445 42.2306 99.8265 42.3495 99.9402 42.4314C100.054 42.5133 100.192 42.5533 100.333 42.5448C103.374 42.4031 106.291 42.8781 109.083 43.9698C109.208 44.0189 109.314 44.1071 109.385 44.2214C109.456 44.3356 109.489 44.4698 109.478 44.604C109.466 44.7381 109.412 44.865 109.323 44.9658C109.234 45.0667 109.114 45.136 108.983 45.1636C108.003 45.3761 107.276 45.9261 106.801 46.8136C106.697 47.0094 106.535 47.1281 106.314 47.1698C104.383 47.5073 102.601 48.3761 100.883 48.8136C97.9868 49.5511 95.1514 50.4677 92.3764 51.5636C79.4014 56.6948 68.3639 60.4011 58.0889 67.3761C58.048 67.403 58.0007 67.4188 57.9518 67.4218C57.903 67.4249 57.8544 67.415 57.811 67.3934C57.7677 67.3717 57.7312 67.3389 57.7053 67.2985C57.6794 67.2581 57.6651 67.2115 57.6639 67.1636C57.6139 65.9698 58.7389 65.8386 58.8326 64.8823C59.0389 62.8636 60.1889 61.1073 61.6639 59.6323C61.7431 59.553 61.8009 59.4549 61.8319 59.3472C61.863 59.2395 61.8661 59.1256 61.8411 59.0163C61.8162 58.9071 61.7639 58.8059 61.6891 58.7223C61.6144 58.6388 61.5197 58.5755 61.4139 58.5386C60.0639 58.0698 57.9389 61.8448 56.7014 62.7323C56.543 62.849 56.4222 62.999 56.3389 63.1823L55.3951 65.2823C55.3207 65.4518 55.2763 65.6316 55.2639 65.8136C55.1805 67.0094 54.8118 68.0761 54.1576 69.0136C52.8264 70.9073 51.9201 72.8198 49.4576 71.7323C49.2493 71.6406 49.1056 71.7031 49.0264 71.9198L48.3701 73.6698C48.3565 73.7101 48.332 73.7463 48.2991 73.7748C48.2662 73.8033 48.2261 73.8231 48.1826 73.8323L46.0264 74.2573C45.7639 74.3073 45.6535 74.4656 45.6951 74.7323C46.0993 77.2198 45.6035 78.2281 44.2076 77.7573C43.7535 73.5615 43.6243 69.5219 43.8201 65.6386C43.8368 65.3719 43.7201 65.2865 43.4701 65.3823C43.2451 65.4656 42.993 65.7906 42.7139 66.3573L43.1389 63.8511C43.9639 58.8177 45.8305 54.2427 48.7389 50.1261C48.9222 50.8469 48.8951 51.3886 48.6576 51.7511C46.6576 54.8386 45.2681 58.1886 44.4889 61.8011C44.4347 62.0511 44.5306 62.2094 44.7764 62.2761C45.6806 62.5219 46.341 63.0656 46.7576 63.9073C46.8153 64.0241 46.9163 64.114 47.0397 64.1583C47.163 64.2025 47.2993 64.1977 47.4201 64.1448L49.8389 63.0698C50.018 62.9865 50.1368 62.8531 50.1951 62.6698C51.9618 57.2156 55.1326 52.7823 59.7076 49.3698C59.9618 49.1823 60.1514 49.199 60.2764 49.4198C60.3286 49.5144 60.3459 49.6241 60.3253 49.7294C60.3047 49.8347 60.2475 49.9287 60.1639 49.9948C57.1722 52.3573 54.7847 55.2281 53.0014 58.6073C52.9055 58.7948 52.8993 58.9865 52.9826 59.1823L53.9826 61.4511C54.0027 61.4948 54.0316 61.534 54.0674 61.566C54.1032 61.598 54.1451 61.6221 54.1905 61.6369C54.2358 61.6516 54.2836 61.6566 54.3307 61.6515C54.3778 61.6464 54.4232 61.6313 54.4639 61.6073C55.9264 60.7531 57.0264 59.6011 57.7639 58.1511C59.5139 54.6948 61.2889 52.5386 64.5326 50.3261C64.5844 50.289 64.6473 50.271 64.7108 50.2751C64.7743 50.2793 64.8344 50.3053 64.8808 50.3488C64.9273 50.3923 64.9572 50.4506 64.9655 50.5137C64.9738 50.5768 64.96 50.6408 64.9264 50.6948L63.9576 52.3761C63.9171 52.4411 63.8999 52.518 63.9089 52.5941C63.9179 52.6702 63.9525 52.741 64.007 52.7948C64.0616 52.8486 64.1328 52.8822 64.209 52.8902C64.2852 52.8982 64.3619 52.8799 64.4264 52.8386C66.6639 51.4823 68.8826 49.8011 71.0639 48.6948C79.3764 44.4698 88.1514 41.6156 97.3889 40.1323C97.4891 40.1153 97.5821 40.069 97.6566 39.999C97.731 39.929 97.7835 39.8384 97.8076 39.7386L97.9701 39.0636C97.9986 38.9434 98.0658 38.8357 98.1616 38.7567C98.2574 38.6778 98.3767 38.6319 98.5014 38.6261C99.4722 38.5844 100.353 38.3052 101.145 37.7886C101.283 37.6969 101.433 37.6677 101.595 37.7011C102.278 37.8469 102.868 37.674 103.364 37.1823C103.431 37.1164 103.476 37.0313 103.491 36.9392C103.507 36.847 103.493 36.7527 103.451 36.6698C103.285 36.3365 103.262 36.0386 103.383 35.7761Z" fill="#3E1D1F"/>
  <path d="M144.301 39.5762L150.883 44.3137C149.445 45.67 149.395 49.5637 146.683 48.4075C146.32 48.2533 145.945 48.1512 145.558 48.1012C145.337 48.0762 145.226 48.1741 145.226 48.395V49.0637C145.226 49.3137 145.151 49.5387 145.001 49.7387C144.289 50.6887 143.401 50.8116 142.339 50.1075C142.197 50.0158 142.053 50.0158 141.908 50.1075C141.564 50.3325 140.908 50.4262 140.551 50.2325C137.526 48.595 134.083 46.995 130.845 47.245C127.314 47.5262 124.076 47.545 120.708 48.32C120.617 48.3424 120.522 48.3304 120.441 48.2864C120.36 48.2423 120.299 48.1695 120.27 48.0825L119.776 46.6137C119.747 46.527 119.7 46.4477 119.638 46.3809C119.577 46.3142 119.503 46.2615 119.42 46.2262C118.833 45.9721 118.643 45.4575 118.851 44.6825C118.912 44.4687 119.047 44.2827 119.233 44.1575C121.091 42.9241 121.922 41.4554 121.726 39.7512C129.193 35.8054 136.718 35.7471 144.301 39.5762Z" fill="#4C2524"/>
  <path d="M144.301 39.5761C148.334 41.2344 151.755 43.7574 154.564 47.1449C156.076 48.8782 157.349 50.8469 158.382 53.0511C164.964 68.5199 159.782 84.9511 152.414 98.9074C152.309 99.1032 152.364 99.2386 152.576 99.3136C157.068 100.922 160.539 103.839 162.989 108.064C169.307 118.207 170.657 130.857 165.445 141.851C157.551 155.964 143.282 161.22 127.576 159.345L126.557 159.251C126.328 159.23 126.168 159.114 126.076 158.901C123.339 152.605 118.759 148.203 112.339 145.695L110.464 145.37C110.239 145.332 110.064 145.407 109.939 145.595C109.659 146.016 109.38 146.084 109.101 145.801C109.82 144.607 107.407 144.726 106.37 144.62C105.607 143.699 105.474 142.607 105.97 141.345C119.745 140.27 134.651 135.345 141.27 121.951C141.403 121.676 141.603 121.614 141.87 121.764L143.289 122.545C143.489 122.657 143.699 122.739 143.92 122.789C150.241 124.209 155.082 122.591 158.445 117.932C161.695 113.426 161.632 108.57 157.851 104.457C156.126 102.589 152.464 100.507 149.97 101.764C147.964 102.776 147.026 106.601 146.932 108.595C146.932 110.178 147.13 111.709 147.526 113.189C147.859 114.418 147.453 114.83 146.307 114.426C146.136 114.365 145.985 114.259 145.87 114.12C144.474 112.416 143.416 110.255 142.695 107.639L142.457 101.151C142.907 91.2344 142.901 84.099 142.439 79.7449C141.826 74.0136 137.982 71.3574 132.595 69.3386C124.964 66.4761 118.389 63.7136 112.57 57.7761C112.411 57.6178 112.262 57.6219 112.12 57.7886C105.201 65.8949 92.5948 68.8199 82.0761 70.4886C74.1428 71.8678 69.0448 72.9136 66.7823 73.6261C60.6511 75.5636 58.8073 80.7011 58.8073 86.6136C58.8073 92.0803 58.8157 97.5344 58.8323 102.976C58.5198 103.051 58.3823 102.964 58.4198 102.714C55.0781 100.98 52.0073 100.947 49.2073 102.614C43.3761 104.857 41.0136 110.545 43.2573 116.501C47.3031 122.672 52.9448 124.339 60.1823 121.501C60.0323 121.264 60.1698 121.147 60.5948 121.151C64.5823 132.557 76.0886 138.189 87.4198 140.195L93.8823 141.182C93.899 142.191 93.7031 143.112 93.2948 143.945C93.0156 144.266 92.6761 144.432 92.2761 144.445L89.9073 144.895L86.2823 145.789L81.7761 147.701C73.7136 151.407 71.3698 168.195 70.9323 176.014C70.6261 174.62 70.6198 173.182 69.9073 171.92C62.8386 159.407 52.4011 149.245 42.3948 139.914C38.3615 136.147 35.1469 131.922 32.7511 127.239C30.9927 123.401 29.7532 119.384 29.0323 115.189L28.9761 114.139C29.0719 114.022 29.1907 113.962 29.3323 113.957C29.4202 113.954 29.5067 113.981 29.5773 114.034C29.6479 114.088 29.6983 114.164 29.7198 114.251C30.7323 118.63 32.2615 122.809 34.3073 126.789C35.0636 128.264 36.2948 128.639 37.8011 128.232C38.0386 128.17 38.1531 128.016 38.1448 127.77C38.0886 125.807 37.6698 121.439 39.8761 120.951C39.9198 120.942 39.9612 120.925 39.9981 120.9C40.035 120.874 40.0665 120.842 40.0909 120.804C40.1153 120.766 40.1321 120.724 40.1403 120.68C40.1485 120.635 40.1479 120.589 40.1386 120.545C39.5823 117.864 38.4573 111.757 40.7948 110.289C40.9531 110.193 41.0615 110.057 41.1198 109.882C42.2282 106.716 43.9969 103.989 46.4261 101.701C46.5969 101.543 46.6636 101.349 46.6261 101.12C46.4094 99.7949 46.7886 98.6594 47.7636 97.7136C47.8336 97.6456 47.8873 97.563 47.9209 97.4721C47.9544 97.3812 47.9669 97.2843 47.9573 97.1886C47.6865 94.0636 47.0011 91.0407 45.9011 88.1199C45.8386 87.9574 45.7219 87.8636 45.5511 87.8386L43.6073 87.5511L45.0136 87.0136C45.1127 86.974 45.1987 86.9072 45.2617 86.821C45.3247 86.7348 45.3622 86.6326 45.3698 86.5261C45.3865 86.1803 45.2532 85.8449 44.9698 85.5199C43.3948 78.9949 42.0823 73.8386 42.7136 66.3574C42.9927 65.7907 43.2448 65.4657 43.4698 65.3824C43.7198 65.2865 43.8365 65.3719 43.8198 65.6386C43.624 69.5219 43.7532 73.5615 44.2073 77.7574C45.9823 84.4324 47.8677 90.4199 49.8636 95.7199C50.1636 96.524 50.2886 97.2594 50.2386 97.9261C50.2219 98.1511 50.2823 98.3532 50.4198 98.5324C50.9032 99.149 51.4928 99.3365 52.1886 99.0949C52.3844 99.0282 52.5823 99.0178 52.7823 99.0636C55.0448 99.5949 54.7511 97.7824 56.3573 97.1824C56.5532 97.1115 56.6698 96.974 56.7073 96.7699C57.399 93.1282 57.6136 89.4719 57.3511 85.8011C57.2011 83.7386 57.8886 79.0199 58.8261 77.1949C61.8136 71.3824 67.7448 71.7574 72.7886 69.4199C85.2448 63.6449 100.526 64.4574 110.157 53.2636C110.574 52.7803 111.536 52.4928 113.045 52.4011C113.203 52.3928 113.291 52.4657 113.307 52.6199C113.582 55.3386 117.026 57.0386 119.289 57.8324C126.107 60.2136 132.695 62.0574 139.251 65.9511C140.47 66.6761 143.132 69.7574 143.876 71.0261C144.943 72.8344 145.88 74.7115 146.689 76.6574C146.766 76.8408 146.788 77.0429 146.751 77.2386C146.689 77.5553 146.882 77.7636 147.332 77.8636C147.486 77.9011 147.561 77.999 147.557 78.1574L147.52 79.4449C147.507 79.749 147.628 79.8178 147.882 79.6511C147.97 79.5969 148.022 79.5261 148.039 79.4386C148.109 79.1303 148.293 79.0324 148.589 79.1449L150.776 79.9949C150.964 80.0657 151.141 80.049 151.307 79.9449C151.803 79.6407 152.309 79.5532 152.826 79.6824C153.034 79.7324 153.174 79.6574 153.245 79.4574C154.014 77.4074 153.326 75.2636 154.507 73.1136C154.661 72.8303 154.762 72.849 154.807 73.1699C155.07 75.0532 155.128 76.9386 154.982 78.8261C154.975 78.9209 154.986 79.016 155.016 79.1052C155.046 79.1945 155.094 79.2761 155.157 79.3449C155.699 79.9407 156.353 80.2886 157.12 80.3886C157.249 80.4053 157.328 80.4782 157.357 80.6074L157.495 81.1761C157.561 81.4594 157.655 81.4699 157.776 81.2074C158.984 78.5532 159.478 75.7657 159.257 72.8449C159.236 72.5824 159.332 72.374 159.545 72.2199L159.895 71.9636C160.007 71.8761 160.072 71.7615 160.089 71.6199C160.572 66.2032 160.101 61.149 158.676 56.4574C157.305 51.9365 154.707 47.8886 150.882 44.3136L144.301 39.5761Z" fill="#1A060F"/>
  <path d="M157.807 40.6198C177.182 59.8323 184.782 85.1885 182.126 112.095C181.547 117.907 180.345 123.574 178.52 129.095C176.887 133.857 174.851 138.464 172.414 142.914C171.914 142.93 171.51 142.747 171.201 142.364C171.076 142.209 170.922 142.166 170.739 142.232L170.295 142.401C170.249 142.417 170.2 142.422 170.153 142.415C170.105 142.408 170.059 142.39 170.02 142.362C169.981 142.334 169.949 142.296 169.927 142.253C169.905 142.21 169.894 142.162 169.895 142.114C169.92 141.18 169.697 140.343 169.226 139.601C169.101 139.414 168.947 139.384 168.764 139.514L166.857 140.876C166.732 140.964 166.63 141.076 166.551 141.214C166.322 141.614 165.953 141.826 165.445 141.851C170.657 130.857 169.307 118.207 162.989 108.064C163.28 107.822 163.643 107.743 164.076 107.826C164.297 107.868 164.462 107.793 164.57 107.601C175.07 89.0135 174.539 68.4385 161.42 51.201C161.355 51.1162 161.264 51.0539 161.162 51.0229C161.06 50.9919 160.95 50.9938 160.849 51.0283C160.747 51.0627 160.659 51.1281 160.597 51.2151C160.535 51.3021 160.501 51.4065 160.501 51.5135C160.501 51.9385 160.295 52.1323 159.882 52.0948C159.674 52.0781 159.516 52.1594 159.407 52.3385C159.137 52.7719 158.795 53.0094 158.382 53.051C157.349 50.8469 156.076 48.8781 154.564 47.1448C154.572 46.9031 154.628 46.6885 154.732 46.501C154.828 46.326 154.812 46.1635 154.682 46.0135C153.866 45.0594 153.093 44.0656 152.364 43.0323C152.36 43.0269 152.357 43.0203 152.357 43.0135C152.357 43.0068 152.36 43.0002 152.364 42.9948C152.393 42.9614 152.43 42.9219 152.476 42.876C152.509 42.8385 152.514 42.7969 152.489 42.751C151.91 41.7302 152.076 40.8823 152.989 40.2073C153.164 40.0781 153.33 40.0864 153.489 40.2323C154.205 40.8781 155.03 41.3281 155.964 41.5823C156.18 41.6406 156.357 41.7573 156.495 41.9323C156.791 42.2989 157.322 42.3406 158.089 42.0573C158.12 42.0439 158.145 42.0206 158.161 41.9909C158.177 41.9612 158.183 41.927 158.177 41.8938C158.171 41.8606 158.155 41.8302 158.129 41.8077C158.104 41.7852 158.072 41.7719 158.039 41.7698H157.751C157.46 41.7698 157.37 41.6344 157.482 41.3635L157.807 40.6198Z" fill="#7EBA98"/>
  <path d="M162.989 108.064C160.539 103.839 157.068 100.922 152.576 99.3135C152.364 99.2385 152.31 99.1031 152.414 98.9073C159.782 84.951 164.964 68.5198 158.382 53.051C158.795 53.0094 159.137 52.7719 159.407 52.3385C159.516 52.1594 159.674 52.0781 159.882 52.0948C160.295 52.1323 160.501 51.9385 160.501 51.5135C160.501 51.4065 160.535 51.3021 160.597 51.2151C160.659 51.1281 160.747 51.0627 160.849 51.0283C160.95 50.9938 161.06 50.9919 161.162 51.0229C161.265 51.0539 161.355 51.1162 161.42 51.201C174.539 68.4385 175.07 89.0135 164.57 107.601C164.462 107.793 164.297 107.868 164.076 107.826C163.643 107.743 163.28 107.822 162.989 108.064Z" fill="#5DA491"/>
  <path d="M142.457 101.151L142.42 99.545C142.416 99.3783 142.334 99.2846 142.176 99.2637L141.976 99.2387C141.772 99.2096 141.666 99.0929 141.657 98.8887C141.62 98.045 141.17 97.4012 141.176 96.6075C141.193 92.0408 141.128 87.47 140.982 82.895C140.801 77.195 139.732 73.1887 134.232 71.3262C130.453 70.0471 127.187 68.8408 124.432 67.7075C120.201 65.9637 116.201 63.1387 112.182 60.6137C112.01 60.5055 111.801 60.4696 111.601 60.5137C110.772 60.6971 110.243 61.1762 110.014 61.9512C109.951 62.1679 109.826 62.3408 109.639 62.47C101.889 67.9012 91.8886 70.6512 82.3199 71.8637C82.1616 71.8846 82.0824 71.8137 82.0824 71.6512L82.0762 70.4887C92.5949 68.82 105.201 65.895 112.12 57.7887C112.262 57.6221 112.412 57.6179 112.57 57.7762C118.389 63.7137 124.964 66.4762 132.595 69.3387C137.982 71.3575 141.826 74.0137 142.439 79.745C142.901 84.0991 142.907 91.2346 142.457 101.151Z" fill="#F89564"/>
  <path d="M42.7137 61.9512C42.1304 63.747 42.272 64.3804 43.1387 63.8512L42.7137 66.3575C42.0824 73.8387 43.395 78.995 44.97 85.52C39.145 87.52 34.7908 91.1887 31.9075 96.5262C28.2575 103.289 27.8512 107.776 28.3137 115.67C28.3179 115.753 28.3616 115.799 28.445 115.807L28.6012 115.832C28.8012 115.857 28.9199 115.77 28.9574 115.57L29.0325 115.189C29.7533 119.385 30.9929 123.401 32.7512 127.239C32.6595 127.335 32.5429 127.393 32.4012 127.414C32.1845 127.439 32.0241 127.353 31.92 127.157C30.2741 124.007 29.1574 120.676 28.5699 117.164C28.5533 117.064 28.495 117.014 28.395 117.014C28.145 117.018 27.9033 116.918 27.6699 116.714C24.8199 114.214 24.5324 118.501 22.2074 118.52C22.0074 118.52 21.8512 118.605 21.7387 118.776L20.92 119.995C20.795 120.182 20.6658 120.185 20.5325 120.001C20.32 119.714 20.0637 119.522 19.7637 119.426C16.397 101.014 18.2179 83.1054 25.2262 65.7012C25.4262 65.6345 25.6179 65.3429 25.8012 64.8262L26.195 65.3075C26.4116 65.57 26.5991 65.5512 26.7575 65.2512L26.9637 64.8762C27.0721 64.6679 27.2283 64.6221 27.4325 64.7387C27.8866 65.0054 28.3533 65.0616 28.8325 64.9075C29.0075 64.8533 29.1012 64.7345 29.1137 64.5512C29.2137 63.445 37.2637 61.1762 37.5637 61.07C37.7595 60.9991 37.9262 60.8866 38.0637 60.7325C38.7762 59.9325 39.5991 59.795 40.5325 60.32C40.6212 60.3701 40.6966 60.4411 40.7521 60.5271C40.8076 60.6131 40.8416 60.7114 40.8512 60.8137C40.9304 61.6929 41.5512 62.072 42.7137 61.9512ZM29.2651 82.6345C29.2499 82.5289 29.2072 82.4283 29.1394 82.3385C29.0715 82.2487 28.9799 82.1714 28.8698 82.111C28.7596 82.0507 28.6331 82.0084 28.4975 81.9867C28.3618 81.965 28.2196 81.9643 28.0791 81.9845C27.7952 82.0254 27.5353 82.1494 27.3563 82.3291C27.1773 82.5088 27.0941 82.7296 27.1248 82.9429C27.14 83.0485 27.1827 83.1491 27.2506 83.2389C27.3184 83.3287 27.41 83.406 27.5201 83.4664C27.6303 83.5267 27.7568 83.569 27.8925 83.5907C28.0281 83.6124 28.1703 83.6132 28.3108 83.5929C28.5947 83.552 28.8547 83.4281 29.0336 83.2483C29.2126 83.0686 29.2959 82.8478 29.2651 82.6345Z" fill="#91C299"/>
  <path d="M142.458 101.151L142.695 107.639C141.883 109.097 141.547 110.847 141.689 112.889C141.414 113.139 141.158 113.278 140.92 113.307L140.983 112.989C141.033 112.76 140.941 112.624 140.708 112.582C139.349 112.328 138.008 112.043 136.683 111.726C136.564 111.699 136.453 111.645 136.358 111.57C136.262 111.495 136.184 111.4 136.13 111.292C136.075 111.183 136.044 111.064 136.041 110.943C136.037 110.821 136.06 110.7 136.108 110.589C136.233 110.297 136.162 110.174 135.895 110.22C135.708 110.257 135.601 110.37 135.576 110.557C135.41 111.762 134.737 112.543 133.558 112.901C133.387 112.56 133.362 112.243 133.483 111.951C134.233 111.422 134.735 110.76 134.989 109.964C135.056 109.76 135.056 109.557 134.989 109.357C133.706 105.295 130.937 102.622 126.683 101.339C119.645 98.8575 113.639 105.132 116.97 112.064L116.258 112.389C116.158 112.143 116.053 111.949 115.945 111.807C115.91 111.757 115.857 111.722 115.796 111.711C115.736 111.7 115.674 111.713 115.623 111.748C115.573 111.783 115.538 111.836 115.527 111.897C115.516 111.957 115.529 112.019 115.564 112.07C116.535 113.607 117.799 114.832 119.358 115.745C119.72 115.957 119.691 116.08 119.27 116.114C118.014 116.214 117.645 114.495 116.47 114.27C116.274 114.232 116.095 114.155 115.933 114.039L114.033 112.657C113.874 112.541 113.697 112.51 113.501 112.564C112.651 112.81 112.049 112.53 111.695 111.726C111.656 111.633 111.585 111.557 111.496 111.511C111.406 111.464 111.303 111.451 111.204 111.472C111.105 111.493 111.016 111.548 110.952 111.628C110.887 111.707 110.852 111.806 110.851 111.907V112.864C110.851 113.122 110.76 113.162 110.576 112.982L110.314 112.714C110.165 112.568 109.97 112.48 109.764 112.464C107.893 112.335 106.045 112.141 104.22 111.882C104.162 111.874 104.108 111.847 104.067 111.806C104.025 111.764 103.998 111.711 103.989 111.653C103.98 111.595 103.989 111.536 104.016 111.484C104.043 111.432 104.086 111.39 104.139 111.364L104.42 111.232C104.583 111.157 104.626 111.039 104.551 110.876C103.708 109.089 102.27 110.001 100.814 109.739C100.718 109.72 100.619 109.728 100.527 109.763C100.436 109.797 100.355 109.856 100.295 109.932C99.7951 110.553 99.2493 110.707 98.6576 110.395C97.2535 109.649 95.966 109.545 94.7951 110.082C94.708 110.122 94.6123 110.138 94.518 110.13C94.4236 110.121 94.3338 110.087 94.2576 110.032C92.7493 108.937 91.3056 108.98 89.9264 110.164C89.7931 110.276 89.6389 110.332 89.4639 110.332C88.6764 110.339 86.6514 111.12 86.1951 110.332C86.1076 110.178 86.0389 110.187 85.9889 110.357C85.318 112.657 83.9389 114.303 81.8514 115.295C81.8305 114.57 81.6139 114.216 81.2014 114.232C83.243 113.299 84.2534 111.907 84.2326 110.057C84.5118 108.466 84.241 106.87 83.4201 105.27C84.0368 104.637 83.3993 103.787 81.5076 102.72C81.9785 102.603 82.2701 102.36 82.3826 101.989C82.4535 101.747 82.3826 101.555 82.1701 101.414L80.9139 100.557C80.7389 100.437 80.543 100.37 80.3264 100.357C72.9514 99.97 66.2264 102.632 64.6951 110.476C64.6576 110.668 64.5743 110.839 64.4451 110.989C62.8326 112.914 62.091 114.905 62.2201 116.964C62.291 118.039 62.291 118.876 62.2201 119.476C62.2122 119.542 62.1823 119.603 62.1351 119.65C62.088 119.697 62.0265 119.726 61.9606 119.733C61.8947 119.74 61.8282 119.725 61.7721 119.69C61.7159 119.655 61.6734 119.601 61.6514 119.539C61.3222 118.618 61.0972 117.682 60.9764 116.732C60.9472 116.528 60.8306 116.435 60.6264 116.451C60.4889 116.468 60.3305 116.537 60.1514 116.657L58.8326 102.976C58.816 97.5345 58.8076 92.0804 58.8076 86.6137C58.8076 80.7012 60.6514 75.5637 66.7826 73.6262C69.0451 72.9137 74.1431 71.8679 82.0764 70.4887L82.0826 71.6512C82.0826 71.8137 82.1618 71.8845 82.3201 71.8637C91.8889 70.6512 101.889 67.9012 109.639 62.47C109.826 62.3408 109.951 62.1679 110.014 61.9512C110.243 61.1762 110.772 60.697 111.601 60.5137C111.801 60.4696 112.01 60.5055 112.183 60.6137C116.201 63.1387 120.201 65.9637 124.433 67.7075C127.187 68.8408 130.453 70.047 134.233 71.3262C139.733 73.1887 140.801 77.195 140.983 82.895C141.128 87.47 141.193 92.0408 141.176 96.6075C141.17 97.4012 141.62 98.045 141.658 98.8887C141.666 99.0929 141.772 99.2095 141.976 99.2387L142.176 99.2637C142.335 99.2845 142.416 99.3783 142.42 99.545L142.458 101.151ZM67.6514 92.895C66.0201 94.6325 64.5826 95.845 65.8389 97.9637C65.8649 98.0087 65.9018 98.0464 65.9462 98.0736C65.9906 98.1008 66.0411 98.1166 66.0935 98.1197C66.1459 98.1228 66.1985 98.113 66.2467 98.0913C66.2949 98.0695 66.3373 98.0365 66.3701 97.995C69.4014 94.0012 72.1014 90.9575 77.3514 91.045C78.6889 91.07 80.3451 91.72 81.9326 91.8012C82.1451 91.8137 82.3326 91.747 82.4951 91.6012C84.6201 89.7012 82.4451 87.0637 80.2076 87.1762C75.1868 87.4304 71.0014 89.3366 67.6514 92.895ZM119.295 87.3137C114.82 86.7949 114.439 93.07 119.02 91.8387C125.251 90.1637 129.801 93.02 133.345 98.0012C133.483 98.1929 133.641 98.2116 133.82 98.0575C134.953 97.0783 134.985 95.997 133.914 94.8137C129.981 90.4845 125.108 87.9845 119.295 87.3137Z" fill="#FBB380"/>
  <path d="M28.3108 83.5928C28.9018 83.5077 29.3291 83.0786 29.2651 82.6344C29.2011 82.1903 28.67 81.8993 28.079 81.9845C27.4879 82.0696 27.0607 82.4987 27.1247 82.9429C27.1887 83.387 27.7197 83.678 28.3108 83.5928Z" fill="#F1E8B9"/>
  <path d="M44.9699 85.5199C45.2533 85.8449 45.3866 86.1803 45.3699 86.5261C45.3623 86.6326 45.3248 86.7348 45.2618 86.821C45.1988 86.9073 45.1128 86.974 45.0136 87.0136L43.6074 87.5511C32.6886 91.3886 27.6199 103.157 28.9762 114.139L29.0324 115.189L28.9574 115.57C28.9199 115.77 28.8012 115.857 28.6012 115.832L28.4449 115.807C28.3616 115.799 28.3178 115.753 28.3137 115.67C27.8512 107.776 28.2574 103.289 31.9074 96.5261C34.7907 91.1886 39.1449 87.5199 44.9699 85.5199Z" fill="#FCE4AD"/>
  <path d="M67.6511 92.8948C71.0011 89.3365 75.1865 87.4302 80.2073 87.176C82.4448 87.0635 84.6198 89.701 82.4948 91.601C82.3323 91.7469 82.1448 91.8135 81.9323 91.801C80.3448 91.7198 78.6886 91.0698 77.3511 91.0448C72.1011 90.9573 69.4011 94.001 66.3699 97.9948C66.337 98.0363 66.2946 98.0694 66.2464 98.0911C66.1982 98.1128 66.1456 98.1226 66.0932 98.1195C66.0408 98.1164 65.9903 98.1006 65.9459 98.0734C65.9015 98.0462 65.8647 98.0085 65.8386 97.9635C64.5823 95.8448 66.0198 94.6323 67.6511 92.8948Z" fill="#2D0909"/>
  <path d="M119.02 91.8386C114.439 93.0698 114.82 86.7948 119.295 87.3136C125.107 87.9844 129.98 90.4844 133.914 94.8136C134.984 95.9969 134.953 97.0782 133.82 98.0573C133.641 98.2115 133.482 98.1927 133.345 98.0011C129.801 93.0198 125.251 90.1636 119.02 91.8386Z" fill="#2D0909"/>
  <path d="M43.6079 87.5511L45.5516 87.8386C45.7225 87.8636 45.8391 87.9574 45.9016 88.1199C47.0016 91.0407 47.687 94.0636 47.9579 97.1886C47.9674 97.2843 47.955 97.3812 47.9214 97.4721C47.8879 97.563 47.8341 97.6456 47.7641 97.7136C46.7891 98.6594 46.41 99.7949 46.6266 101.12C46.6641 101.349 46.5975 101.543 46.4266 101.701C43.9975 103.989 42.2287 106.716 41.1204 109.882C41.062 110.057 40.9537 110.193 40.7954 110.289C38.4579 111.757 39.5829 117.864 40.1391 120.545C40.1484 120.589 40.149 120.635 40.1408 120.68C40.1327 120.724 40.1159 120.766 40.0915 120.804C40.0671 120.842 40.0355 120.874 39.9987 120.9C39.9618 120.925 39.9203 120.942 39.8766 120.951C37.6704 121.439 38.0891 125.807 38.1454 127.77C38.1537 128.016 38.0391 128.17 37.8016 128.232C36.2954 128.639 35.0641 128.264 34.3079 126.789C32.2621 122.809 30.7329 118.63 29.7204 114.251C29.6988 114.164 29.6485 114.088 29.5779 114.034C29.5073 113.981 29.4207 113.954 29.3329 113.957C29.1912 113.962 29.0725 114.022 28.9766 114.139C27.6204 103.157 32.6891 91.3886 43.6079 87.5511ZM42.2641 92.6324C36.3329 95.3824 30.8266 104.295 31.9516 111.076C31.9933 111.33 32.1329 111.409 32.3704 111.314C33.4204 110.893 34.3371 110.12 35.1204 108.995C36.5579 106.92 48.4766 91.2511 42.5641 92.5324C42.4604 92.5531 42.3596 92.5867 42.2641 92.6324Z" fill="#2E1319"/>
  <path d="M31.9514 111.076C30.8264 104.295 36.3326 95.3823 42.2639 92.6323C42.3593 92.5866 42.4601 92.553 42.5639 92.5323C48.4764 91.251 36.5576 106.92 35.1201 108.995C34.3368 110.12 33.4201 110.893 32.3701 111.314C32.1326 111.409 31.993 111.33 31.9514 111.076Z" fill="#B26A35"/>
  <path d="M81.5076 102.72C74.4264 97.5637 59.9264 108.745 68.0514 113.445C69.2347 115.057 70.543 115.782 71.9764 115.62C75.3305 116.462 78.6222 116.353 81.8513 115.295C83.9388 114.303 85.318 112.657 85.9888 110.357C86.0388 110.187 86.1076 110.178 86.1951 110.332C86.6514 111.12 88.6764 110.339 89.4639 110.332C89.6389 110.332 89.793 110.276 89.9264 110.164C91.3055 108.98 92.7493 108.937 94.2576 110.032C94.3337 110.087 94.4235 110.121 94.5179 110.13C94.6123 110.138 94.708 110.122 94.7951 110.082C95.9659 109.545 97.2534 109.649 98.6576 110.395C99.2493 110.707 99.7951 110.553 100.295 109.932C100.355 109.856 100.436 109.797 100.527 109.763C100.619 109.728 100.718 109.72 100.814 109.739C102.27 110.001 103.708 109.089 104.551 110.876C104.626 111.039 104.583 111.157 104.42 111.232L104.139 111.364C104.086 111.39 104.043 111.432 104.016 111.484C103.989 111.536 103.98 111.595 103.989 111.653C103.998 111.711 104.025 111.764 104.067 111.806C104.108 111.847 104.162 111.874 104.22 111.882C106.045 112.141 107.893 112.335 109.764 112.464C109.97 112.48 110.165 112.568 110.314 112.714L110.576 112.982C110.76 113.162 110.851 113.122 110.851 112.864V111.907C110.852 111.806 110.887 111.707 110.952 111.628C111.016 111.548 111.105 111.493 111.204 111.472C111.303 111.451 111.406 111.464 111.496 111.511C111.585 111.557 111.656 111.633 111.695 111.726C112.049 112.53 112.651 112.81 113.501 112.564C113.697 112.51 113.874 112.541 114.033 112.657L115.933 114.039C116.095 114.155 116.274 114.232 116.47 114.27C117.645 114.495 118.014 116.214 119.27 116.114C119.691 116.08 119.72 115.957 119.358 115.745C117.799 114.832 116.535 113.607 115.564 112.07C115.529 112.019 115.516 111.957 115.527 111.897C115.538 111.836 115.573 111.783 115.623 111.748C115.674 111.713 115.736 111.7 115.796 111.711C115.857 111.722 115.91 111.757 115.945 111.807C116.053 111.949 116.158 112.143 116.258 112.389C117.787 114.351 119.666 115.512 121.895 115.87C125.27 116.414 131.139 115.757 133.558 112.901C134.737 112.543 135.41 111.762 135.576 110.557C135.601 110.37 135.708 110.257 135.895 110.22C136.162 110.174 136.233 110.297 136.108 110.589C136.06 110.7 136.037 110.821 136.041 110.943C136.044 111.064 136.075 111.183 136.13 111.292C136.184 111.4 136.262 111.495 136.358 111.57C136.453 111.645 136.564 111.699 136.683 111.726C138.008 112.043 139.349 112.328 140.708 112.582C140.941 112.624 141.033 112.76 140.983 112.989L140.92 113.307C138.914 121.27 134.895 124.551 128.626 129.532C122.195 134.639 113.82 137.62 105.845 139.164C102.858 139.745 99.5576 139.645 96.4076 139.732C91.9389 139.857 88.2264 139.114 84.0576 138.032C84.0124 138.02 83.9647 138.023 83.9215 138.04C83.8783 138.058 83.8418 138.089 83.8174 138.13C83.793 138.17 83.7819 138.218 83.7857 138.265C83.7896 138.313 83.8082 138.358 83.8389 138.395C84.168 138.778 84.5909 139.043 85.1076 139.189C85.2701 139.235 85.4347 139.26 85.6013 139.264C86.3097 139.272 86.916 139.582 87.4201 140.195C76.0889 138.189 64.5826 132.557 60.5951 121.151L60.1514 116.657C60.3305 116.537 60.4889 116.468 60.6264 116.451C60.8305 116.435 60.9472 116.528 60.9764 116.732C61.0972 117.682 61.3222 118.618 61.6514 119.539C61.6734 119.601 61.7159 119.655 61.772 119.69C61.8282 119.725 61.8946 119.74 61.9606 119.733C62.0265 119.726 62.088 119.697 62.1351 119.65C62.1823 119.603 62.2122 119.542 62.2201 119.476C62.2909 118.876 62.2909 118.039 62.2201 116.964C62.0909 114.905 62.8326 112.914 64.4451 110.989C64.5743 110.839 64.6576 110.668 64.6951 110.476C66.2264 102.632 72.9513 99.9699 80.3263 100.357C80.543 100.37 80.7388 100.437 80.9138 100.557L82.1701 101.414C82.3826 101.555 82.4535 101.747 82.3826 101.989C82.2701 102.36 81.9784 102.603 81.5076 102.72ZM101.939 121.814C99.9389 122.214 99.0263 122.757 96.7701 121.539C96.7323 121.518 96.6886 121.51 96.646 121.517C96.6033 121.524 96.5641 121.545 96.5347 121.576C96.5052 121.608 96.4872 121.648 96.4834 121.691C96.4796 121.734 96.4904 121.777 96.5139 121.814C97.6014 123.514 100.583 122.801 102.014 122.014C102.422 121.785 102.397 121.718 101.939 121.814ZM92.4326 128.545C92.166 128.178 91.8034 127.835 91.3451 127.514C90.9784 127.26 90.9159 127.32 91.1576 127.695C93.9764 132.051 97.5389 135.276 103.145 133.582C105.553 132.857 107.224 131.157 108.158 128.482C108.57 127.928 108.778 127.628 108.783 127.582C108.908 126.745 108.574 126.478 107.783 126.782C102.008 129.007 98.1826 128.364 92.4326 128.545Z" fill="#FCC093"/>
  <path d="M126.683 101.339C121.864 102.007 117.095 103.007 117.258 108.632C117.299 110.107 117.908 111.184 119.083 111.864C119.249 112.326 119.531 112.651 119.926 112.839C120.081 112.909 120.237 112.916 120.395 112.857L124.814 111.232C124.994 111.164 125.194 111.168 125.37 111.245L126.389 111.689C123.16 115.393 120.02 115.518 116.97 112.064C113.639 105.132 119.645 98.8573 126.683 101.339Z" fill="#932318"/>
  <path d="M58.4198 102.714C57.9573 102.851 57.5678 103.093 57.2511 103.439C57.1219 103.58 57.0511 103.749 57.0386 103.945L56.8386 107.626C56.8262 107.804 56.8495 107.984 56.9073 108.157C57.074 108.653 56.9178 109.009 56.4386 109.226C53.4136 110.595 50.1198 112.07 50.2073 115.839C50.2948 119.826 55.0073 121.289 58.1573 121.407C58.3725 121.415 58.585 121.354 58.7636 121.232L59.5698 120.689C59.7657 120.555 59.899 120.601 59.9699 120.826L60.1823 121.501C52.9448 124.339 47.3032 122.672 43.2573 116.501L43.6073 116.089C43.7323 115.943 43.774 115.776 43.7323 115.589C42.6032 110.572 44.4282 106.247 49.2073 102.614C52.0073 100.947 55.0782 100.98 58.4198 102.714Z" fill="#F89564"/>
  <path d="M81.5075 102.72C83.3992 103.787 84.0367 104.637 83.42 105.27C81.6408 103.616 79.7804 103.018 77.8388 103.476C76.4679 103.08 75.3388 103.026 74.4513 103.314C69.3679 104.955 67.1534 108.305 67.8075 113.364C67.8867 113.393 67.968 113.42 68.0513 113.445C59.9263 108.745 74.4263 97.5636 81.5075 102.72Z" fill="#4C1813"/>
  <path d="M126.682 101.339C130.937 102.622 133.705 105.295 134.989 109.357C135.055 109.557 135.055 109.759 134.989 109.964C134.735 110.759 134.232 111.422 133.482 111.951C133.128 107.364 130.995 104.334 127.082 102.864C125.714 102.351 119.957 103.582 123.376 105.832C123.543 105.941 123.716 105.955 123.895 105.876L124.764 105.495C125.072 105.503 125.226 105.616 125.226 105.832C125.243 109.912 123.195 111.922 119.082 111.864C117.907 111.184 117.299 110.107 117.257 108.632C117.095 103.007 121.864 102.007 126.682 101.339Z" fill="#2D0909"/>
  <path d="M105.97 141.345L93.8823 141.182L87.4198 140.195C86.9156 139.582 86.3094 139.272 85.601 139.264C85.4344 139.26 85.2698 139.235 85.1073 139.189C84.5906 139.043 84.1677 138.778 83.8386 138.395C83.8079 138.358 83.7893 138.313 83.7854 138.265C83.7816 138.218 83.7926 138.17 83.817 138.13C83.8415 138.089 83.8779 138.058 83.9211 138.04C83.9644 138.023 84.0121 138.02 84.0573 138.032C88.226 139.114 91.9386 139.857 96.4073 139.732C99.5573 139.645 102.857 139.745 105.845 139.164C113.82 137.62 122.195 134.639 128.626 129.532C134.895 124.551 138.914 121.27 140.92 113.307C141.157 113.278 141.414 113.139 141.689 112.889L140.907 120.395C140.89 120.557 140.915 120.724 140.98 120.876C141.044 121.028 141.145 121.157 141.269 121.249C141.394 121.34 141.537 121.389 141.681 121.389C141.824 121.39 141.962 121.342 142.076 121.251C142.351 121.039 142.549 121.103 142.67 121.445C142.727 121.608 142.84 121.747 142.988 121.837C143.136 121.927 143.311 121.963 143.482 121.939C147.016 121.439 149.632 119.778 151.332 116.957C153.957 112.601 150.714 109.87 146.932 108.595C147.026 106.601 147.964 102.776 149.97 101.764C152.464 100.507 156.126 102.589 157.851 104.457C161.632 108.57 161.695 113.426 158.445 117.932C155.082 122.591 150.241 124.21 143.92 122.789C143.699 122.739 143.489 122.657 143.289 122.545L141.87 121.764C141.603 121.614 141.403 121.676 141.27 121.951C134.651 135.345 119.745 140.27 105.97 141.345Z" fill="#F89564"/>
  <path d="M49.2078 102.614C44.4287 106.247 42.6037 110.572 43.7328 115.589C43.7745 115.776 43.7328 115.943 43.6078 116.089L43.2578 116.501C41.0141 110.545 43.3766 104.857 49.2078 102.614Z" fill="#F7CD97"/>
  <path d="M133.482 111.951C133.361 112.243 133.386 112.559 133.557 112.901C131.139 115.757 125.27 116.414 121.895 115.87C119.666 115.512 117.786 114.351 116.257 112.389L116.97 112.064C120.02 115.518 123.159 115.393 126.389 111.689C127.639 109.995 128.445 106.226 126.32 104.689C126.233 104.626 126.127 104.594 126.02 104.597C125.912 104.601 125.809 104.639 125.726 104.707L124.764 105.495L123.895 105.876C123.716 105.955 123.543 105.941 123.376 105.832C119.957 103.582 125.714 102.351 127.082 102.864C130.995 104.334 133.128 107.364 133.482 111.951Z" fill="#F8F5F3"/>
  <path d="M58.4198 102.714C58.3823 102.964 58.5198 103.051 58.8323 102.976L60.151 116.657L60.5948 121.151C60.1698 121.147 60.0323 121.264 60.1823 121.501L59.9698 120.826C59.899 120.601 59.7656 120.555 59.5698 120.689L58.7635 121.232C58.5849 121.354 58.3725 121.415 58.1573 121.407C55.0073 121.289 50.2948 119.826 50.2073 115.839C50.1198 112.07 53.4135 110.595 56.4385 109.226C56.9177 109.009 57.074 108.653 56.9073 108.157C56.8495 107.984 56.8261 107.804 56.8386 107.626L57.0386 103.945C57.0511 103.749 57.1219 103.58 57.251 103.439C57.5677 103.093 57.9573 102.851 58.4198 102.714Z" fill="#EA8359"/>
  <path d="M77.8389 103.476C78.0639 105.626 77.4806 106.853 76.0889 107.157C75.5681 106.845 75.3952 106.212 75.5702 105.257C75.6077 105.049 75.5202 104.945 75.3077 104.945C74.5743 104.949 74.1035 105.28 73.8952 105.939C72.7327 109.645 74.7202 112.739 77.8702 114.414C78.9618 114.997 80.0723 114.937 81.2014 114.232C81.6139 114.216 81.8306 114.57 81.8514 115.295C78.6222 116.353 75.3306 116.462 71.9764 115.62L67.8077 113.364C67.1535 108.305 69.3681 104.955 74.4514 103.314C75.3389 103.026 76.4681 103.08 77.8389 103.476Z" fill="#F8F5F3"/>
  <path d="M83.4201 105.27C84.2409 106.87 84.5118 108.466 84.2326 110.057C82.1159 112.578 79.9847 113.141 77.8389 111.745C77.6597 111.628 77.518 111.476 77.4139 111.289C77.2305 110.968 76.9722 110.722 76.6389 110.551C76.4597 110.46 76.3243 110.324 76.2326 110.145C75.7326 109.141 75.6847 108.145 76.0889 107.157C77.4805 106.853 78.0639 105.626 77.8389 103.476C79.7805 103.018 81.6409 103.616 83.4201 105.27Z" fill="#2D0909"/>
  <path d="M126.389 111.689L125.37 111.245C125.194 111.169 124.994 111.164 124.814 111.232L120.395 112.857C120.237 112.916 120.08 112.909 119.926 112.839C119.53 112.651 119.249 112.326 119.083 111.864C123.195 111.922 125.243 109.912 125.226 105.832C125.226 105.616 125.072 105.503 124.764 105.495L125.726 104.707C125.809 104.639 125.913 104.6 126.02 104.597C126.127 104.594 126.233 104.626 126.32 104.689C128.445 106.226 127.639 109.995 126.389 111.689Z" fill="#6D261A"/>
  <path d="M76.0888 107.157C75.6846 108.145 75.7326 109.141 76.2326 110.145C76.3242 110.324 76.4597 110.459 76.6388 110.551C76.9722 110.722 77.2305 110.968 77.4138 111.289C77.518 111.476 77.6596 111.628 77.8388 111.745C79.9846 113.141 82.1159 112.578 84.2325 110.057C84.2534 111.907 83.243 113.299 81.2013 114.232C80.0721 114.936 78.9617 114.997 77.8701 114.414C74.7201 112.739 72.7326 109.645 73.8951 105.939C74.1034 105.28 74.5742 104.949 75.3076 104.945C75.5201 104.945 75.6076 105.049 75.5701 105.257C75.3951 106.211 75.568 106.845 76.0888 107.157Z" fill="#6D261A"/>
  <path d="M142.695 107.639C143.416 110.255 144.474 112.416 145.87 114.12C145.985 114.259 146.136 114.365 146.308 114.426C147.453 114.83 147.86 114.418 147.526 113.189C147.131 111.709 146.933 110.178 146.933 108.595C150.714 109.87 153.958 112.601 151.333 116.957C149.633 119.778 147.016 121.439 143.483 121.939C143.311 121.963 143.136 121.927 142.988 121.837C142.84 121.747 142.728 121.608 142.67 121.445C142.549 121.103 142.351 121.039 142.076 121.251C141.962 121.342 141.824 121.39 141.681 121.389C141.537 121.389 141.394 121.34 141.27 121.248C141.145 121.157 141.044 121.027 140.98 120.876C140.915 120.724 140.89 120.557 140.908 120.395L141.689 112.889C141.547 110.847 141.883 109.097 142.695 107.639Z" fill="#EA8359"/>
  <path d="M68.0514 113.445C67.968 113.42 67.8868 113.393 67.8076 113.364L71.9764 115.62C70.543 115.782 69.2347 115.057 68.0514 113.445Z" fill="#B26A35"/>
  <path d="M32.7512 127.239C35.147 131.922 38.3616 136.147 42.3949 139.914C52.4011 149.245 62.8387 159.407 69.9074 171.92C70.6199 173.182 70.6262 174.62 70.9324 176.014C71.0574 176.51 71.0595 177.018 70.9387 177.539C70.972 177.897 70.8366 178.328 70.5324 178.832C57.4074 173.741 46.2512 165.772 37.0637 154.926C29.7553 146.301 24.497 136.551 21.2887 125.676L19.7637 119.426C20.0637 119.522 20.3199 119.714 20.5324 120.001C20.6657 120.185 20.7949 120.182 20.9199 119.995L21.7387 118.776C21.8512 118.605 22.0074 118.52 22.2074 118.52C24.5324 118.501 24.8199 114.214 27.6699 116.714C27.9032 116.918 28.1449 117.018 28.3949 117.014C28.4949 117.014 28.5532 117.064 28.5699 117.164C29.1574 120.676 30.2741 124.007 31.9199 127.157C32.0241 127.353 32.1845 127.439 32.4012 127.414C32.5428 127.393 32.6595 127.335 32.7512 127.239Z" fill="#5DA491"/>
  <path d="M96.7698 121.539C99.0261 122.757 99.9386 122.214 101.939 121.814C102.397 121.718 102.422 121.784 102.014 122.014C100.582 122.801 97.6011 123.514 96.5136 121.814C96.4901 121.777 96.4794 121.734 96.4832 121.691C96.4869 121.648 96.505 121.608 96.5344 121.576C96.5639 121.544 96.6031 121.524 96.6457 121.517C96.6884 121.51 96.732 121.518 96.7698 121.539Z" fill="#CF7253"/>
  <path d="M108.158 128.482C104.77 129.582 95.3014 131.345 92.4326 128.545C98.1826 128.364 102.008 129.007 107.783 126.782C108.574 126.478 108.908 126.745 108.783 127.582C108.778 127.628 108.57 127.928 108.158 128.482Z" fill="#EA8359"/>
  <path d="M92.4327 128.545C95.3015 131.345 104.77 129.582 108.158 128.482C107.224 131.157 105.554 132.857 103.145 133.582C97.5389 135.276 93.9764 132.051 91.1577 127.695C90.916 127.32 90.9785 127.259 91.3452 127.514C91.8035 127.834 92.166 128.178 92.4327 128.545ZM98.5265 132.789C98.4431 132.972 98.4952 133.105 98.6827 133.189C99.964 133.776 104.033 133.114 104.726 131.851C104.864 131.601 104.791 131.482 104.508 131.495C103.189 131.551 99.1265 131.47 98.5265 132.789Z" fill="#510607"/>
  <path d="M98.5263 132.789C99.1263 131.47 103.189 131.551 104.507 131.495C104.791 131.482 104.864 131.601 104.726 131.851C104.032 133.114 99.9638 133.776 98.6825 133.189C98.495 133.105 98.4429 132.972 98.5263 132.789Z" fill="#BE3624"/>
  <path d="M172.414 142.914C163.297 159.268 150.003 170.782 132.532 177.457C130.764 170.157 128.389 165.132 126.832 159.901C126.762 159.655 126.849 159.505 127.095 159.451L127.576 159.345C143.282 161.22 157.551 155.964 165.445 141.851C165.953 141.826 166.322 141.614 166.551 141.214C166.63 141.076 166.732 140.964 166.857 140.876L168.764 139.514C168.947 139.384 169.101 139.414 169.226 139.601C169.697 140.343 169.92 141.18 169.895 142.114C169.894 142.162 169.905 142.21 169.927 142.253C169.949 142.296 169.98 142.334 170.02 142.362C170.059 142.39 170.105 142.408 170.152 142.415C170.2 142.422 170.249 142.417 170.295 142.401L170.739 142.232C170.922 142.166 171.076 142.209 171.201 142.364C171.509 142.747 171.914 142.93 172.414 142.914Z" fill="#5DA491"/>
  <path d="M105.97 141.345C105.474 142.607 105.607 143.699 106.37 144.62C104.339 145.12 94.0699 146.295 93.2949 143.945C93.7033 143.112 93.8991 142.191 93.8824 141.182L105.97 141.345Z" fill="#CF7253"/>
  <path d="M93.2951 143.945C94.0701 146.295 104.339 145.12 106.37 144.62C107.408 144.726 109.82 144.607 109.101 145.801L108.108 148.764L107.514 146.601C107.488 146.503 107.439 146.413 107.371 146.338C107.303 146.263 107.219 146.204 107.125 146.168C107.03 146.131 106.929 146.118 106.828 146.128C106.727 146.138 106.63 146.172 106.545 146.226C104.058 147.818 101.795 149.674 99.7576 151.795C99.6201 151.937 99.4805 151.939 99.3389 151.801L93.3013 145.926C93.1305 145.764 92.9826 145.582 92.8576 145.382L92.2764 144.445C92.6764 144.432 93.0159 144.266 93.2951 143.945Z" fill="#E27D47"/>
  <path d="M92.276 144.445L92.8572 145.382C92.9822 145.582 93.1301 145.764 93.3009 145.926L99.3385 151.801C99.4801 151.939 99.6197 151.937 99.7572 151.795C101.795 149.674 104.057 147.818 106.545 146.226C106.63 146.172 106.727 146.138 106.827 146.128C106.928 146.118 107.03 146.131 107.124 146.168C107.219 146.204 107.303 146.263 107.371 146.338C107.438 146.413 107.487 146.503 107.513 146.601L108.107 148.764C106.663 152.657 102.938 157.845 98.7947 158.864C97.8739 159.089 97.1634 159.014 96.6634 158.639C92.1218 155.23 89.8697 150.649 89.9072 144.895L92.276 144.445Z" fill="#EF8D50"/>
  <path d="M89.9073 144.895C89.8698 150.649 92.1219 155.23 96.6636 158.639C97.1636 159.014 97.874 159.089 98.7949 158.864C102.939 157.845 106.664 152.657 108.107 148.764L109.101 145.801C109.38 146.084 109.659 146.016 109.939 145.595C110.064 145.407 110.239 145.332 110.464 145.37L112.339 145.695C112.214 150.157 111.007 157.001 107.595 159.82C107.436 159.949 107.268 159.962 107.089 159.857C106.505 159.512 106.189 158.984 106.139 158.276C106.136 158.214 106.112 158.156 106.07 158.11C106.029 158.064 105.972 158.035 105.911 158.027C105.85 158.018 105.788 158.032 105.736 158.065C105.684 158.098 105.645 158.149 105.626 158.207L103.826 163.057C103.784 163.169 103.715 163.268 103.626 163.346C103.536 163.424 103.428 163.478 103.311 163.503C103.195 163.529 103.074 163.525 102.96 163.492C102.846 163.459 102.742 163.397 102.657 163.314C101.12 161.764 99.0824 160.276 97.2324 162.526C94.9199 165.351 92.5448 159.857 92.2011 158.214C92.1836 158.134 92.1449 158.06 92.089 158C92.0332 157.94 91.9622 157.896 91.8835 157.873C91.8049 157.85 91.7214 157.849 91.642 157.869C91.5626 157.889 91.4902 157.931 91.4323 157.989L90.1761 159.245C90.0874 159.333 89.9808 159.4 89.8636 159.443C89.7464 159.485 89.6215 159.501 89.4977 159.491C89.3739 159.48 89.2541 159.442 89.1467 159.38C89.0394 159.319 88.947 159.234 88.8761 159.132C86.1511 155.245 86.0261 151.451 86.2823 145.789L89.9073 144.895Z" fill="#694B25"/>
  <path d="M86.2827 145.789C86.0265 151.451 86.1515 155.245 88.8765 159.132C88.9474 159.234 89.0397 159.319 89.1471 159.381C89.2545 159.442 89.3743 159.48 89.4981 159.491C89.6219 159.501 89.7468 159.485 89.864 159.443C89.9811 159.4 90.0878 159.333 90.1765 159.245L91.4327 157.989C91.4906 157.931 91.563 157.889 91.6424 157.869C91.7218 157.849 91.8052 157.85 91.8839 157.873C91.9625 157.896 92.0335 157.94 92.0894 158C92.1453 158.06 92.184 158.134 92.2015 158.214C92.5452 159.857 94.9202 165.351 97.2327 162.526C99.0827 160.276 101.12 161.764 102.658 163.314C102.742 163.397 102.846 163.459 102.961 163.492C103.075 163.525 103.196 163.529 103.312 163.503C103.428 163.478 103.536 163.424 103.626 163.346C103.716 163.268 103.785 163.169 103.826 163.057L105.626 158.207C105.645 158.149 105.684 158.098 105.736 158.065C105.788 158.032 105.85 158.018 105.912 158.027C105.973 158.035 106.029 158.064 106.071 158.11C106.112 158.156 106.136 158.214 106.139 158.276C106.189 158.984 106.506 159.512 107.089 159.857C107.268 159.962 107.437 159.949 107.595 159.82C111.008 157.001 112.214 150.157 112.339 145.695C118.76 148.203 123.339 152.605 126.076 158.901C126.168 159.114 126.329 159.23 126.558 159.251L127.576 159.345L127.095 159.451C126.849 159.505 126.762 159.655 126.833 159.901C128.389 165.132 130.764 170.157 132.533 177.457C129.812 178.732 127.07 179.684 124.308 180.314C124.091 180.359 123.974 180.274 123.958 180.057C123.77 177.551 122.976 170.701 119.839 169.82L121.139 160.189C121.148 160.111 121.131 160.033 121.09 159.967C121.049 159.901 120.986 159.851 120.913 159.825C120.84 159.798 120.76 159.798 120.686 159.823C120.612 159.849 120.55 159.898 120.508 159.964C120.32 160.272 120.045 160.312 119.683 160.082C119.52 159.978 119.397 159.839 119.314 159.664C118.043 156.993 117.181 153.991 116.726 150.657C116.706 150.503 116.612 150.422 116.445 150.414C116.312 150.409 116.251 150.474 116.264 150.607L118.22 172.551L118.364 181.845C106.456 184.491 94.5244 184.53 82.5702 181.964C82.4787 181.945 82.3968 181.894 82.3386 181.821C82.2803 181.748 82.2495 181.657 82.2515 181.564L82.364 174.47C82.4723 170.062 82.9473 165.724 83.789 161.457C83.8848 160.974 83.8619 160.968 83.7202 161.439L79.6202 174.964L78.914 180.764C78.9092 180.804 78.8957 180.843 78.8744 180.878C78.8531 180.912 78.8245 180.942 78.7907 180.965C78.7568 180.987 78.7184 181.002 78.6782 181.008C78.638 181.015 78.5969 181.012 78.5577 181.001L70.5327 178.832C70.8369 178.328 70.9723 177.897 70.939 177.539L71.3577 178.201C71.5077 178.434 71.614 178.416 71.6765 178.145C71.9431 177.057 72.1598 175.418 72.3265 173.226C72.5827 169.864 74.264 162.814 75.0202 160.064C76.2952 155.447 78.5473 151.326 81.7765 147.701L86.2827 145.789Z" fill="#A69141"/>
  <path d="M81.7764 147.701C78.5472 151.326 76.2951 155.447 75.0201 160.064C74.2639 162.814 72.5826 169.864 72.3264 173.226C72.1597 175.418 71.943 177.057 71.6764 178.145C71.6139 178.416 71.5076 178.434 71.3576 178.201L70.9389 177.539C71.0597 177.018 71.0576 176.509 70.9326 176.014C71.3701 168.195 73.7139 151.407 81.7764 147.701Z" fill="#FCC093"/>
  <path d="M119.839 169.82C119.335 169.903 118.962 170.201 118.72 170.714C118.708 171.318 118.541 171.93 118.22 172.551L116.264 150.607C116.251 150.474 116.312 150.41 116.445 150.414C116.612 150.422 116.706 150.503 116.726 150.657C117.181 153.991 118.043 156.993 119.314 159.664C119.397 159.839 119.52 159.978 119.683 160.082C120.045 160.312 120.32 160.272 120.508 159.964C120.549 159.898 120.612 159.849 120.686 159.823C120.76 159.798 120.84 159.799 120.913 159.825C120.986 159.851 121.048 159.901 121.089 159.967C121.131 160.033 121.148 160.111 121.139 160.189L119.839 169.82Z" fill="#7F8060"/>
  <path d="M82.3638 174.47C81.8263 174.174 81.368 174.055 80.9888 174.114C80.7722 174.147 80.6201 174.266 80.5326 174.47C80.3118 175.003 80.0076 175.168 79.6201 174.964L83.7201 161.439C83.8618 160.968 83.8847 160.974 83.7889 161.457C82.9472 165.724 82.4722 170.062 82.3638 174.47Z" fill="#220509"/>
  <path d="M118.72 170.714C118.853 172.076 119.674 172.816 121.182 172.932C121.452 172.952 121.707 173.061 121.907 173.242C122.108 173.423 122.242 173.666 122.288 173.932L123.395 180.27C123.441 180.516 123.341 180.668 123.095 180.726L118.364 181.845L118.22 172.551C118.541 171.93 118.707 171.318 118.72 170.714Z" fill="#507B65"/>
</svg>
