<svg width="1468" height="528" viewBox="0 0 1468 528" fill="none" xmlns="http://www.w3.org/2000/svg">
  <path d="M629.316 28.4828C637.181 28.4828 643.556 22.1067 643.556 14.2414C643.556 6.37608 637.181 0 629.316 0C621.452 0 615.076 6.37608 615.076 14.2414C615.076 22.1067 621.452 28.4828 629.316 28.4828Z" fill="#BA264A"/>
  <path d="M1172.24 194.483C1180.1 194.483 1186.48 188.107 1186.48 180.241C1186.48 172.376 1180.1 166 1172.24 166C1164.38 166 1158 172.376 1158 180.241C1158 188.107 1164.38 194.483 1172.24 194.483Z" fill="#334075"/>
  <path d="M1341.24 522.483C1349.1 522.483 1355.48 516.107 1355.48 508.241C1355.48 500.376 1349.1 494 1341.24 494C1333.38 494 1327 500.376 1327 508.241C1327 516.107 1333.38 522.483 1341.24 522.483Z" fill="#334075"/>
  <path d="M380.24 105.484C388.104 105.484 394.48 99.1075 394.48 91.2422C394.48 83.3769 388.104 77.0008 380.24 77.0008C372.375 77.0008 366 83.3769 366 91.2422C366 99.1075 372.375 105.484 380.24 105.484Z" fill="#F0EEE2"/>
  <path d="M1266.24 395.483C1274.1 395.483 1280.48 389.107 1280.48 381.241C1280.48 373.376 1274.1 367 1266.24 367C1258.38 367 1252 373.376 1252 381.241C1252 389.107 1258.38 395.483 1266.24 395.483Z" fill="#F0EEE2"/>
  <path d="M303.24 527.483C311.104 527.483 317.48 521.107 317.48 513.241C317.48 505.376 311.104 499 303.24 499C295.375 499 289 505.376 289 513.241C289 521.107 295.375 527.483 303.24 527.483Z" fill="#BA264A"/>
  <g filter="url(#filter0_d_2_12)">
    <path d="M1058.49 38.9858C1061.53 38.9858 1063.98 36.5265 1063.98 33.4929C1063.98 30.4592 1061.53 28 1058.49 28C1055.46 28 1053 30.4592 1053 33.4929C1053 36.5265 1055.46 38.9858 1058.49 38.9858Z" fill="#BA264A"/>
  </g>
  <g filter="url(#filter1_d_2_12)">
    <path d="M1341.49 233.986C1344.53 233.986 1346.98 231.527 1346.98 228.493C1346.98 225.459 1344.53 223 1341.49 223C1338.46 223 1336 225.459 1336 228.493C1336 231.527 1338.46 233.986 1341.49 233.986Z" fill="#BA264A"/>
  </g>
  <path d="M1186.49 460.986C1189.53 460.986 1191.98 458.527 1191.98 455.493C1191.98 452.459 1189.53 450 1186.49 450C1183.46 450 1181 452.459 1181 455.493C1181 458.527 1183.46 460.986 1186.49 460.986Z" fill="#CE8D3D"/>
  <path d="M147.492 49.9858C150.526 49.9858 152.985 47.5265 152.985 44.4929C152.985 41.4592 150.526 39 147.492 39C144.459 39 142 41.4592 142 44.4929C142 47.5265 144.459 49.9858 147.492 49.9858Z" fill="#CE8D3D"/>
  <path d="M459.523 73.7608C462.556 73.7608 465.015 71.3015 465.015 68.2679C465.015 65.2342 462.556 62.775 459.523 62.775C456.49 62.775 454.031 65.2342 454.031 68.2679C454.031 71.3015 456.49 73.7608 459.523 73.7608Z" fill="#334075"/>
  <path d="M167.492 185.986C170.526 185.986 172.985 183.527 172.985 180.493C172.985 177.459 170.526 175 167.492 175C164.459 175 162 177.459 162 180.493C162 183.527 164.459 185.986 167.492 185.986Z" fill="#BA264A"/>
  <path d="M1462.49 269.986C1465.53 269.986 1467.98 267.527 1467.98 264.493C1467.98 261.459 1465.53 259 1462.49 259C1459.46 259 1457 261.459 1457 264.493C1457 267.527 1459.46 269.986 1462.49 269.986Z" fill="#CE8D3D"/>
  <path d="M33.4923 499.986C36.5256 499.986 38.9846 497.527 38.9846 494.493C38.9846 491.459 36.5256 489 33.4923 489C30.459 489 28 491.459 28 494.493C28 497.527 30.459 499.986 33.4923 499.986Z" fill="#CE8D3D"/>
  <path d="M1397.49 413.986C1400.53 413.986 1402.98 411.527 1402.98 408.493C1402.98 405.459 1400.53 403 1397.49 403C1394.46 403 1392 405.459 1392 408.493C1392 411.527 1394.46 413.986 1397.49 413.986Z" fill="#334075"/>
  <path d="M141.492 357.986C144.526 357.986 146.985 355.527 146.985 352.493C146.985 349.459 144.526 347 141.492 347C138.459 347 136 349.459 136 352.493C136 355.527 138.459 357.986 141.492 357.986Z" fill="#F0EEE2"/>
  <path d="M207.24 436.483C215.104 436.483 221.48 430.107 221.48 422.241C221.48 414.376 215.104 408 207.24 408C199.375 408 193 414.376 193 422.241C193 430.107 199.375 436.483 207.24 436.483Z" fill="#334075"/>
  <path d="M14.2399 251.483C22.1043 251.483 28.4798 245.107 28.4798 237.241C28.4798 229.376 22.1043 223 14.2399 223C6.37539 223 0 229.376 0 237.241C0 245.107 6.37539 251.483 14.2399 251.483Z" fill="#CE8D3D"/>
  <path d="M1341.24 96.4828C1349.1 96.4828 1355.48 90.1067 1355.48 82.2414C1355.48 74.3761 1349.1 68 1341.24 68C1333.38 68 1327 74.3761 1327 82.2414C1327 90.1067 1333.38 96.4828 1341.24 96.4828Z" fill="#CE8D3D"/>
  <defs>
    <filter id="filter0_d_2_12" x="1049" y="28" width="18.9846" height="18.9858" filterUnits="userSpaceOnUse" color-interpolation-filters="sRGB">
      <feFlood flood-opacity="0" result="BackgroundImageFix"/>
      <feColorMatrix in="SourceAlpha" type="matrix" values="0 0 0 0 0 0 0 0 0 0 0 0 0 0 0 0 0 0 127 0" result="hardAlpha"/>
      <feOffset dy="4"/>
      <feGaussianBlur stdDeviation="2"/>
      <feComposite in2="hardAlpha" operator="out"/>
      <feColorMatrix type="matrix" values="0 0 0 0 0 0 0 0 0 0 0 0 0 0 0 0 0 0 0.25 0"/>
      <feBlend mode="normal" in2="BackgroundImageFix" result="effect1_dropShadow_2_12"/>
      <feBlend mode="normal" in="SourceGraphic" in2="effect1_dropShadow_2_12" result="shape"/>
    </filter>
    <filter id="filter1_d_2_12" x="1332" y="223" width="18.9846" height="18.9858" filterUnits="userSpaceOnUse" color-interpolation-filters="sRGB">
      <feFlood flood-opacity="0" result="BackgroundImageFix"/>
      <feColorMatrix in="SourceAlpha" type="matrix" values="0 0 0 0 0 0 0 0 0 0 0 0 0 0 0 0 0 0 127 0" result="hardAlpha"/>
      <feOffset dy="4"/>
      <feGaussianBlur stdDeviation="2"/>
      <feComposite in2="hardAlpha" operator="out"/>
      <feColorMatrix type="matrix" values="0 0 0 0 0 0 0 0 0 0 0 0 0 0 0 0 0 0 0.25 0"/>
      <feBlend mode="normal" in2="BackgroundImageFix" result="effect1_dropShadow_2_12"/>
      <feBlend mode="normal" in="SourceGraphic" in2="effect1_dropShadow_2_12" result="shape"/>
    </filter>
  </defs>
</svg>
