<svg width="348" height="244" viewBox="0 0 348 244" fill="none" xmlns="http://www.w3.org/2000/svg">
  <path d="M118.55 13.6229C122.08 13.6229 124.941 10.7616 124.941 7.23193C124.941 3.70228 122.08 0.840942 118.55 0.840942C115.02 0.840942 112.159 3.70228 112.159 7.23193C112.159 10.7616 115.02 13.6229 118.55 13.6229Z" fill="#BA264A"/>
  <path d="M340.91 94.8389C344.44 94.8389 347.301 91.9776 347.301 88.4479C347.301 84.9183 344.44 82.0569 340.91 82.0569C337.38 82.0569 334.519 84.9183 334.519 88.4479C334.519 91.9776 337.38 94.8389 340.91 94.8389Z" fill="#334075"/>
  <path d="M6.76196 48.1779C10.2916 48.1779 13.153 45.3166 13.153 41.7869C13.153 38.2573 10.2916 35.3959 6.76196 35.3959C3.23231 35.3959 0.370972 38.2573 0.370972 41.7869C0.370972 45.3166 3.23231 48.1779 6.76196 48.1779Z" fill="#F0EEE2"/>
  <path d="M112.16 243.621C115.69 243.621 118.551 240.76 118.551 237.23C118.551 233.7 115.69 230.839 112.16 230.839C108.63 230.839 105.769 233.7 105.769 237.23C105.769 240.76 108.63 243.621 112.16 243.621Z" fill="#BA264A"/>
  <g filter="url(#filter0_d_2_115)">
    <path d="M304.376 28.9349C305.737 28.9349 306.841 27.8313 306.841 26.4699C306.841 25.1086 305.737 24.0049 304.376 24.0049C303.015 24.0049 301.911 25.1086 301.911 26.4699C301.911 27.8313 303.015 28.9349 304.376 28.9349Z" fill="#BA264A"/>
  </g>
  <path d="M116.085 67.3179C117.446 67.3179 118.55 66.2143 118.55 64.8529C118.55 63.4916 117.446 62.3879 116.085 62.3879C114.724 62.3879 113.62 63.4916 113.62 64.8529C113.62 66.2143 114.724 67.3179 116.085 67.3179Z" fill="#F0EEE2"/>
  <path d="M42.345 33.942C43.7064 33.942 44.81 32.8384 44.81 31.477C44.81 30.1156 43.7064 29.012 42.345 29.012C40.9836 29.012 39.88 30.1156 39.88 31.477C39.88 32.8384 40.9836 33.942 42.345 33.942Z" fill="#334075"/>
  <defs>
    <filter id="filter0_d_2_115" x="297.911" y="24.0049" width="12.9301" height="12.93" filterUnits="userSpaceOnUse" color-interpolation-filters="sRGB">
      <feFlood flood-opacity="0" result="BackgroundImageFix"/>
      <feColorMatrix in="SourceAlpha" type="matrix" values="0 0 0 0 0 0 0 0 0 0 0 0 0 0 0 0 0 0 127 0" result="hardAlpha"/>
      <feOffset dy="4"/>
      <feGaussianBlur stdDeviation="2"/>
      <feComposite in2="hardAlpha" operator="out"/>
      <feColorMatrix type="matrix" values="0 0 0 0 0 0 0 0 0 0 0 0 0 0 0 0 0 0 0.25 0"/>
      <feBlend mode="normal" in2="BackgroundImageFix" result="effect1_dropShadow_2_115"/>
      <feBlend mode="normal" in="SourceGraphic" in2="effect1_dropShadow_2_115" result="shape"/>
    </filter>
  </defs>
</svg>

